<svg id="Layer_1" data-name="Layer 1" xmlns="http://www.w3.org/2000/svg" viewBox="0 0 375.05 667.43"><defs><style>.cls-1{fill:#010101;}.cls-2{fill:#131313;}.cls-3{fill:#171818;}.cls-4{fill:#111112;}.cls-5{fill:#080808;}.cls-6{fill:#151515;}.cls-7{fill:#0f0f0f;}.cls-8{fill:#0a0a0a;}.cls-9{fill:#111;}.cls-10{fill:#1b1b1c;}.cls-11{fill:#252525;}.cls-12{fill:#0c0c0c;}.cls-13{fill:#3fb0b5;}.cls-14{fill:#37a5b1;}.cls-15{fill:#126b97;}.cls-16{fill:#319bac;}.cls-17{fill:#19759b;}.cls-18{fill:#2689a3;}.cls-19{fill:#2b91a8;}.cls-20{fill:#2080a0;}.cls-21{fill:#f8f8f8;}.cls-22{fill:#07598f;}.cls-23{fill:#fafafa;}.cls-24{fill:#4cc6bf;}.cls-25{fill:#46bcbb;}.cls-26{fill:#0e6594;}.cls-27{fill:#47b7b1;}.cls-28{fill:#48b9b4;}.cls-29{fill:#212121;}</style></defs><title>startpagebg</title><path d="M376,664.84c-.05,1.65.63,3.21-2.5,3.12-11.33-.31-22.67-.12-34-.12q-167.25,0-334.5-.1c-1.25,0-4.31,2.06-4-1.9,3-9.24,6.07-18.45,8.93-27.73,1.55-5,2.73-10.17,4.08-15.26A39.75,39.75,0,0,0,16,618.4Q22,598.63,28,578.82q15.51-51.23,31-102.46C62,466.21,65,456,68,445.84c.36-.93.78-1.83,1.07-2.78q11-36.6,22.1-73.2a42.23,42.23,0,0,1,3-6.12l15.79,8.3L141,383.76l29,5.08,27,.55,28-3.69,25-7L275,367l8-4.19c.67,2.39,1.31,4.78,2,7.15q11.48,38,23,75.91c.67,2.4,1.29,4.8,2,7.18q9.47,30.92,19,61.83c3.36,4.43,6.42,9,5,15q3,11,6,22,16.56,55,33.19,109.94C373.57,663,375,663.83,376,664.84Z" transform="translate(-0.97 -0.84)"/><path class="cls-1" d="M1,144.84v-26c3.36.89,6.94,1.32,10,2.79,4.77,2.26,9.2,5.25,13.82,7.87.2.11.76-.42,1.16-.66l10.68,5.93c1.81-2.84,3.66-5.71,5.46-8.62q6-9.62,11.88-19.27c2.39-2.28,5.05-4.33,7.13-6.87A141.36,141.36,0,0,1,98.26,68.29c8-4.83,16.5-9,24.76-13.42l18-6,5-1c1.66-.65,3.29-1.73,5-1.89,12-1.14,24-2.09,36-3.1V57l31.57,3.14,29.33,8.81,31,18,28,26.32L331.92,153a5.51,5.51,0,0,0,.18,1.48A161.91,161.91,0,0,1,342,234.13c-1.63,13.19-4.48,26.12-10.61,38.1V262.6H286.88V245.14h38.2V228.88h-38.4V212.4h43.8V196.57h-61.8V279H329c-.38,1.17-.76,2.33-1.15,3.5a180.71,180.71,0,0,1-30.16,41.13l-25.13,19.87-24.66,13.26L224,364.63l-27,3.56L171,368l-30-6-30-13.09L77.56,322.62A189.06,189.06,0,0,1,47.13,278.8c-3.91-12.1-8.43-24.05-11.53-36.35-2.24-8.89-2.58-18.26-3.85-28H19c-.81-16.84,2-33.21,6.44-49.35.91-3.34.28-5.06-3.34-5.46-4.23-.47-7.28-2.49-10.12-6S4.72,147.74,1,144.84ZM184.07,278.77v-52.9L207,260.51l22.44-33.88,1,.35v51.57h17.76V196.16c-5.46,0-10.62-.28-15.72.14a8,8,0,0,0-5.38,3c-6.7,10.3-13.08,20.8-19.83,31.66-1.17-1.76-2.19-3.24-3.14-4.76-5.62-9-11.19-18.11-16.91-27.08-.79-1.24-2.28-2.81-3.52-2.87-5.77-.31-11.57-.14-17.43-.14v82.61ZM87.31,212.9H112V196.44H44.18v16.48H69.06v65.56H87.31Zm40.06-16.58v82.31H145V196.32Zm-17.62-38.79c0,8.57-.06,16.54.06,24.51,0,1.25.82,2.49,1.27,3.74.61-1.26,1.7-2.5,1.74-3.77.19-5.85.09-11.7.09-18.84,3.92,5,6.73,8.88,9.93,12.46s5,8.37,10.19,10.69v-29.5c-4.62,3.49-2.44,7.47-2.79,10.68-.39,3.64-.09,7.35-.09,12.44-4-5.08-6.81-9-10.05-12.57C117.06,164.05,115.68,158.84,109.75,157.53Zm140.19.07c0,8.67-.07,16.81.08,25,0,1.09,1.11,2.16,1.71,3.24.44-1.07,1.23-2.14,1.25-3.22.12-6.06.06-12.12.06-19.54,4,5,6.84,9,10.12,12.68,3.13,3.49,4.89,8.46,10.6,10.63,0-9.31.05-17.75-.08-26.19,0-.77-1.16-1.52-1.77-2.27a7,7,0,0,0-1.36,2.2,22.93,22.93,0,0,0-.08,4v14.43c-4.18-3.72-6.94-7.7-10.2-11.21C257.21,164,255.89,158.67,249.94,157.6ZM88.51,186.33a14.49,14.49,0,1,0-14.09-14.46A14.22,14.22,0,0,0,88.51,186.33Zm107.54-.21,1.14-.69c.15-3.4.31-6.8.46-10,5.31-1.45,8.91-.17,11.28,4.33a16.21,16.21,0,0,0,3.29,4.36c1.06,1,2.63,1.35,4,2l.53-1c-2.49-3.45-5-6.91-7.49-10.41,6.19-3.21,8-6,6.69-10.58-1.42-5.09-5.59-6.16-10.16-6.28-3.77-.09-7.54,0-11.68,0,0,8.88-.07,17.17.08,25.45C194.19,184.23,195.4,185.17,196.05,186.12Zm-8.47-.49c.17-.71.33-1.42.49-2.12-5.45-1.61-11.45.11-17-.94v-9.75h14.83l.14-2.11-14.94-1v-8.59c5.7-1.21,11.56.92,16.72-1.24l-.24-1.71H167.31c0,8.54,0,16.68,0,24.82a24.08,24.08,0,0,0,.3,2.61Zm123.49-27.5v27.06h20.67l.05-1.78H315c-1.37-10.22-1.37-10.2,7.68-10.24,2.39,0,4.77-.25,7.16-.38l-.06-2.39H314.62v-9.59a73.58,73.58,0,0,0,9.06-.08c2.59-.33,6.05,1.68,8.47-2.6Zm-67.56,1.58-.21-1.51H223.09c0,8.71,0,17,0,25.33a13.88,13.88,0,0,0,.26,1.93H243.6l.22-1.83c-5.41-1.92-11.46.14-16.92-1.13-1.38-9.31-1.38-9.29,7.7-9.33,2.4,0,4.8-.23,7.2-.35l0-2.37H226.59v-9C232.11,159.43,238.34,162.55,243.51,159.71Zm61.84,21.49c-.6-.56-1.06-1.23-1.29-1.16a15,15,0,0,0-3,1.32c-5.25,3-10.94,2.27-14.45-1.93a12.06,12.06,0,0,1,0-15.19c3.49-4.21,9-4.88,14.48-2,1,.53,2.42.27,3.65.37-.75-1.08-1.27-2.52-2.29-3.17a14.5,14.5,0,0,0-19.18,3.67,15,15,0,0,0,2.26,19.9C291.26,188,299.58,187.29,305.35,181.2ZM70,180.08a16.43,16.43,0,0,0-3.38,1.06c-5.84,3.25-11.22,2.64-14.83-1.81a11.7,11.7,0,0,1,.09-15.16c3.55-4.21,8.86-4.8,14.48-1.83,1,.52,2.42.19,3.65.26-.65-1-1.09-2.28-2-2.9a14.61,14.61,0,0,0-19.3,3.09C44,169,45,178.26,50.79,183.11S65.12,187.23,70,180.08Zm91.27-20.25-.23-1.68H141.09c0,8.53-.07,16.81.08,25.08,0,1,1.19,1.93,1.83,2.89l1.5-.67v-11c5.16-1.84,10.59.93,15.09-1.77l-.07-1.77H144.71v-9.55C150.26,159.72,156.2,162.33,161.27,159.83Z" transform="translate(-0.97 -0.84)"/><path class="cls-2" d="M68,445.84c-3,10.17-6,20.37-9,30.52Q43.51,527.6,28,578.82a77.72,77.72,0,0,1-16.42-11.71c-3-2.92-7-4.88-10.56-7.27v-214l17-1a28.81,28.81,0,0,0,1,4c1.24,3,2.64,6,4,9l0,4,1.95,2-.66,10.46-1.46.91L35,382.84l7,9,14.57,34.43L61,419.84c1.75,3,1,5.15-2,7-5.28,3.37-5.35,9-.36,12.84,1,.79,2.57,1.56,2.81,2.59C62.38,446.1,65.1,446,68,445.84Z" transform="translate(-0.97 -0.84)"/><path class="cls-3" d="M376,367.84v6l-27.28-9.76c1.64,20.36,6.56,39.9,9.29,59.74-3.14,2-6.38,3.8-9.39,5.95-6.93,4.94-13.75,10-20.62,15.07l-4,4-3,3-3,1c-2.51-5.68-5.57-11.19-7.42-17.08-6.14-19.53-11.86-39.2-17.71-58.82-1.73-5.78-3.34-11.59-5-17.39l12.77-10.31A120.71,120.71,0,0,0,331.09,317l8.1-11.16c4.09.33,8.17.84,12.26.93,5.51.12,6.14-1.16,4.89-6.54-.87-3.71-.93-7.6-1.34-11.41l5,6c1.69,3.68,3.06,7.55,5.16,11,1.42,2.33,3.87,4,5.86,6-7.71,5.68-15.4,11.39-23.13,17-8.07,5.9-16.19,11.76-25.37,18.41,2.73,1.33,4.07,2.11,5.5,2.65,6.62,2.48,13.29,4.87,19.92,7.34Q362,362.54,376,367.84Z" transform="translate(-0.97 -0.84)"/><path class="cls-4" d="M376,85.84v149l-11.84-3a190.23,190.23,0,0,0-2.17-51c-4.06-23.68-12.31-45.69-26.69-65.16l-9.44-13.81c4-3.36,9.67-6,11.64-10.29,1.77-3.88-.56-9.59-.9-14.51a85.41,85.41,0,0,1-.35-13c.26-3.12,3.42-4,5.35-1.87,3.22,3.55,6.41,7.12,9.48,10.79,1.75,2.09,3.12,2.39,5.32.4a4.5,4.5,0,0,1,4.37,0c2.81,2.46,4.95,5.69,7.77,8.13C370.68,83.35,373.48,84.42,376,85.84Z" transform="translate(-0.97 -0.84)"/><path class="cls-5" d="M242,.84h69c.63,1.13,1.19,2.29,1.89,3.37,3.1,4.77,6.65,9.07,8.37,14.88,2.23,7.48,6.15,14.44,9.25,21.67A41.23,41.23,0,0,1,332,45.84c-3.48,0-7-.16-10.45.13-16,1.35-32,1.92-47.94-1-4.29-.8-9.12-.55-11.16-5.81a2.56,2.56,0,0,0-2-1.16c-3.92.15-4.87-2.56-6.62-5.39-2.17-3.49-3-9.74-9.83-7.73-3.27-3.68-4.72-7.65-3.34-12.74C241.6,8.5,241.57,4.61,242,.84Z" transform="translate(-0.97 -0.84)"/><path class="cls-6" d="M376,85.84c-2.51-1.42-5.31-2.49-7.46-4.33-2.82-2.44-5-5.67-7.77-8.13a4.5,4.5,0,0,0-4.37,0c-2.2,2-3.57,1.69-5.32-.4-3.07-3.67-6.26-7.24-9.48-10.79-1.93-2.13-5.09-1.25-5.35,1.87a85.41,85.41,0,0,0,.35,13c.34,4.92,2.67,10.63.9,14.51-2,4.31-7.6,6.93-11.64,10.29Q317,92.72,308.08,83.57L283.77,64,295,62.82l24-2c2.78.22,5.57.36,8.35.68,3.4.39,9.4-3.09,9.16-5.53-.36-3.7-.37-7.54-1.45-11-2.29-7.39-2.54-15.17-5.63-22.53C326.63,15.77,326.37,8.07,325,.84h31c-2.39,5.69-7.15,2.92-10.67,2.41-4.4-.65-7.69.54-11.16,3,3.76,4.61,3.17,11.75,9.62,14.35.57.23.61,1.54,1.12,2.16.67.78,1.63,1.32,2.36,2.06a40,40,0,0,1,3.72,4.1c.85,1.15,1.19,2.68,2.06,3.81C357.1,38,362.49,42,364.58,49.09A9.66,9.66,0,0,0,376,55.84Z" transform="translate(-0.97 -0.84)"/><path class="cls-7" d="M1,56.84V.84H76c-.45,1.18-.75,3.29-1.38,3.39-6,1-10.93,3.12-14.74,8.34-2.2,3-6,4.84-9.06,7.25a2.19,2.19,0,0,0-.67,1.28,18.41,18.41,0,0,1-6,11c-4,3.72-6.75,8.77-12,11.38-.64.33-1,1.29-1.42,2C29.15,48,27.55,50.43,26.1,53c-1.66,2.93-3.71,2.31-5.62.55C15,48.48,11,48.94,6.2,54.79,5.17,56.05,2.76,56.19,1,56.84Z" transform="translate(-0.97 -0.84)"/><path class="cls-8" d="M187,42.84c-12,1-24,2-36,3.1-1.71.16-3.34,1.24-5,1.89q.36-12.13.74-24.27c.1-3.58.16-7.16.24-10.74q1-6,2-12h56q-3.51,17.46-7,34.93H187.42C187.23,38.67,187.09,40.76,187,42.84Z" transform="translate(-0.97 -0.84)"/><path class="cls-2" d="M1,56.84c1.77-.65,4.18-.79,5.21-2.05C11,48.94,15,48.48,20.48,53.52c1.91,1.76,4,2.38,5.62-.55,1.45-2.54,3-5,4.6-7.46.43-.7.78-1.66,1.42-2,5.22-2.61,8-7.66,12-11.38a18.41,18.41,0,0,0,6-11,2.19,2.19,0,0,1,.67-1.28c3-2.41,6.86-4.24,9.06-7.25,3.81-5.22,8.76-7.35,14.74-8.34.63-.1.93-2.21,1.38-3.39h26c-2.15,11.5-6.47,22-16.95,31-3.67.79-4.61,1.77-5.05,7-9.78,3.41-19.54,6.88-29.35,10.22-8.86,3-17.77,5.86-26.65,8.79-3.74.38-7.52.54-11.21,1.19-4,.7-7.86,1.85-11.79,2.81Z" transform="translate(-0.97 -0.84)"/><path class="cls-9" d="M376,486.84v39c-3.81-1-7.6-2-11.42-3q-16.29-4-32.58-8c-.24-3.87-.16-7.79-.8-11.59-.81-4.86-2.21-9.63-3.37-14.43-1.4-5.81,0-7,5.78-6.41,5.94.57,12,.13,18.51.13L345,472.85c6.14,3,12.23,6,18.43,8.88C367.52,483.61,371.79,485.15,376,486.84Z" transform="translate(-0.97 -0.84)"/><path class="cls-10" d="M198,35.77q3.5-17.48,7-34.93h37c-.42,3.77-.39,7.66-1.37,11.27-1.38,5.09.07,9.06,3.34,12.74l5.88,20.2L249,46c-2.55-.49-5.12-.88-7.65-1.49-7.14-1.74-14.26-3.57-21.39-5.36Z" transform="translate(-0.97 -0.84)"/><path class="cls-9" d="M54,106.88q-5.94,9.65-11.88,19.27c-1.8,2.91-3.65,5.78-5.46,8.62L26,128.84c-2.31-2.33-4.39-5-7-7-5.88-4.52-12-8.72-18-13v-32c3,1.18,6.22,2,9,3.59C21.73,87.11,33.34,94,45,100.83l4,1Z" transform="translate(-0.97 -0.84)"/><path class="cls-2" d="M340,551.84l-6-22c7.27,2,14.51,4.12,21.84,5.88,6.67,1.59,13.44,2.76,20.16,4.12v40c-1.6,1.89-2.84,4.64-4.88,5.48-3.49,1.45-4.79,3.69-5.15,7.09s-2.78,3.12-4.14,1.46c-3-3.61-5.93-7.45-7.78-11.68-4-9.08-7.15-18.49-10.85-27.69C342.74,553.37,341.1,552.71,340,551.84Z" transform="translate(-0.97 -0.84)"/><path class="cls-11" d="M376,367.84q-14-5.28-28.07-10.55c-6.63-2.47-13.3-4.86-19.92-7.34-1.43-.54-2.77-1.32-5.5-2.65,9.18-6.65,17.3-12.51,25.37-18.41,7.73-5.65,15.42-11.36,23.13-17l5,3Z" transform="translate(-0.97 -0.84)"/><path class="cls-4" d="M358,423.82c-2.73-19.84-7.65-39.38-9.29-59.74L376,373.84v82l-6-6Z" transform="translate(-0.97 -0.84)"/><path class="cls-9" d="M376,55.84a9.66,9.66,0,0,1-11.41-6.75C362.49,42,357.1,38,353,32.74c-.87-1.13-1.21-2.66-2.06-3.81a40,40,0,0,0-3.72-4.1c-.73-.74-1.69-1.28-2.36-2.06-.51-.62-.55-1.93-1.12-2.16-6.45-2.6-5.86-9.74-9.62-14.35,3.47-2.47,6.76-3.66,11.16-3,3.52.51,8.28,3.28,10.67-2.41h20Z" transform="translate(-0.97 -0.84)"/><path class="cls-2" d="M1,144.84c3.73,2.9,8.11,5.27,11,8.84s5.89,5.51,10.12,6c3.62.4,4.25,2.12,3.34,5.46C21,181.26,18.2,197.63,19,214.47l-8.09,1.37c-1.41,1-2.84,1.92-4.24,2.91-1.91,1.35-3.79,2.73-5.69,4.09Z" transform="translate(-0.97 -0.84)"/><path class="cls-7" d="M340,551.84c1.09.87,2.73,1.53,3.18,2.66,3.7,9.2,6.89,18.61,10.85,27.69,1.85,4.23,4.82,8.07,7.78,11.68,1.36,1.66,3.8,1.79,4.14-1.46s1.66-5.64,5.15-7.09c2-.84,3.28-3.59,4.88-5.48v85c-.95-1-2.42-1.87-2.79-3.06Q356.51,606.84,340,551.84Z" transform="translate(-0.97 -0.84)"/><path class="cls-7" d="M18,344.84l-17,1v-80a45.94,45.94,0,0,1,3.39,6c2,5,3.78,10.1,5.5,15.21,1.37,4.06,3.33,7,7.74,8.85,5.72,2.35,10.94,5.92,16.38,9-.34,1.76-.62,3.53-1,5.27-.26,1.07-.48,2.73-1.18,3-5.7,2.38-11.35,5.18-17.32,6.52S5.92,324,8.81,329.34,14.92,339.68,18,344.84Z" transform="translate(-0.97 -0.84)"/><path class="cls-3" d="M80,38.83c.44-5.24,1.38-6.22,5.05-7,10.48-9,14.8-19.48,16.95-31h47q-1,6-2,12l-3,1c.17-2.1.33-4.19.51-6.38-7-2.55-12.25,1.91-18,4.36-4.08,1.74-7.49,3.67-6.9,9.18.15,1.39-1.7,3.8-3.18,4.41-6.76,2.76-13.72,5-20.56,7.54-.76.28-1.25,1.24-1.87,1.89Z" transform="translate(-0.97 -0.84)"/><path class="cls-8" d="M1,559.84c3.55,2.39,7.52,4.35,10.56,7.27A77.72,77.72,0,0,0,28,578.82q-6,19.8-12,39.58A39.75,39.75,0,0,1,14,622.85c-.53-3.07-.7-6.26-1.67-9.19-2.41-7.3-5.1-14.52-7.94-21.67-.4-1-2.23-1.45-3.4-2.15Z" transform="translate(-0.97 -0.84)"/><path class="cls-3" d="M45,100.83C33.34,94,21.73,87.11,10,80.43,7.21,78.85,4,78,1,76.84v-15c3.93-1,7.82-2.11,11.79-2.81,3.69-.65,7.47-.81,11.21-1.19.68,2.18,1,4.52,2.09,6.5,3.58,6.84,7.52,13.49,11.11,20.33C40,90,42.41,95.44,45,100.83Z" transform="translate(-0.97 -0.84)"/><path class="cls-12" d="M1,222.84c1.9-1.36,3.78-2.74,5.69-4.09,1.4-1,2.83-1.94,4.24-2.91-.42,23,4.81,44.93,13.78,66-1.85-.67-4.16-.84-5.46-2.09-4.3-4.11-8.1-8.75-12.38-12.88C5.34,265.42,3,264.83,1,263.84Z" transform="translate(-0.97 -0.84)"/><path class="cls-10" d="M370,449.83l6,6v31c-4.2-1.69-8.47-3.23-12.58-5.11-6.2-2.84-12.29-5.91-18.43-8.88l-30-15,3-5,3-1c1.42,2,2.54,4.41,4.33,6.05,2.08,1.9,4.95,2.92,7.11,4.75,7,5.9,15.77,5.42,24,6.8,3.7.62,4.87-4,7.29-5.31C370.05,460.78,369.94,455.47,370,449.83Z" transform="translate(-0.97 -0.84)"/><path class="cls-5" d="M376,539.84c-6.72-1.36-13.49-2.53-20.16-4.12-7.33-1.76-14.57-3.91-21.84-5.88,1.43-6-1.63-10.57-5-15h3q16.29,4,32.58,8c3.82.95,7.61,2,11.42,3Z" transform="translate(-0.97 -0.84)"/><path class="cls-12" d="M1,589.84c1.17.7,3,1.14,3.4,2.15,2.84,7.15,5.53,14.37,7.94,21.67,1,2.93,1.14,6.12,1.67,9.19-1.35,5.09-2.53,10.23-4.08,15.26C7.06,647.39,4,656.6,1,665.84Z" transform="translate(-0.97 -0.84)"/><path class="cls-5" d="M376,314.84l-5-3c-2-2-4.44-3.69-5.86-6-2.1-3.43-3.47-7.3-5.16-11-1.58-4.54-.22-8.58,2-12.54a12.43,12.43,0,0,0,1.8-4.52c.5-4.82,3.67-5.29,7.43-4.88,1.61.17,3.19.61,4.79.93Z" transform="translate(-0.97 -0.84)"/><path class="cls-6" d="M364.15,231.84l11.84,3v35c-1.77-.16-3.88.24-5.23-.6-4.17-2.57-8-5.62-12-8.49Q361.44,246.31,364.15,231.84Z" transform="translate(-0.97 -0.84)"/><path class="cls-1" d="M1,263.84c2,1,4.35,1.58,5.87,3.05,4.28,4.13,8.08,8.77,12.38,12.88,1.3,1.25,3.61,1.42,5.46,2.09,2,4,4.07,7.94,6,12,1.77,3.64,3.43,7.34,5.15,11H34c-5.44-3-10.66-6.61-16.38-9-4.41-1.81-6.37-4.79-7.74-8.85-1.72-5.11-3.51-10.2-5.5-15.21a45.94,45.94,0,0,0-3.39-6Z" transform="translate(-0.97 -0.84)"/><path class="cls-7" d="M325,.84c1.38,7.23,1.64,14.93,4.43,21.57,3.09,7.36,3.34,15.14,5.63,22.53,1.08,3.5,1.09,7.34,1.45,11,.24,2.44-5.76,5.92-9.16,5.53-2.78-.32-5.57-.46-8.35-.68,2.25-.66,4.48-1.48,6.78-1.95,2.59-.53,5.24-.75,7.87-1.1l0-2.25c-2.94-.56-5.91-1-8.81-1.74A34.13,34.13,0,0,1,320,51.84c3.84-1.12,7.7-2.17,11.48-3.46.42-.14.36-1.66.52-2.54a41.23,41.23,0,0,0-1.49-5.08c-3.1-7.23-7-14.19-9.25-21.67C319.53,13.28,316,9,312.88,4.21,312.18,3.13,311.62,2,311,.84Z" transform="translate(-0.97 -0.84)"/><path class="cls-7" d="M358.74,260.75c4,2.87,7.85,5.92,12,8.49,1.35.84,3.46.44,5.23.6v4c-1.6-.32-3.18-.76-4.79-.93-3.76-.41-6.93.06-7.43,4.88a12.43,12.43,0,0,1-1.8,4.52c-2.21,4-3.57,8-2,12.54l-5-6-3.28-7.09Z" transform="translate(-0.97 -0.84)"/><path class="cls-5" d="M1,108.84c6,4.33,12.15,8.53,18,13,2.58,2,4.66,4.62,7,7-.4.24-1,.77-1.16.66-4.62-2.62-9-5.61-13.82-7.87-3.08-1.47-6.66-1.9-10-2.79Z" transform="translate(-0.97 -0.84)"/><path class="cls-3" d="M68,445.84c-2.88.13-5.6.26-6.49-3.56-.24-1-1.79-1.8-2.81-2.59-5-3.87-4.92-9.47.36-12.84,2.92-1.86,3.7-4,2-7,3.23-10.11,6.33-20.26,9.72-30.32,2.57-7.63,5.5-15.13,8.28-22.68.73-1.38,1.39-2.8,2.21-4.12,1.07-1.73,2.27-3.38,3.41-5.07l9.54,6.09a42.23,42.23,0,0,0-3,6.12Q80,406.45,69.05,443.06C68.76,444,68.34,444.91,68,445.84Z" transform="translate(-0.97 -0.84)"/><path class="cls-13" d="M94.15,363.74l-9.54-6.08-7.32-6L73.71,348c.76-1.39,2.11-2.75,2.18-4.18.25-5.44,0-10.9.17-16.34.06-1.62,1-3.22,1.5-4.83L111,348.88q-.51,11.58-1,23.16Z" transform="translate(-0.97 -0.84)"/><path class="cls-8" d="M332,514.84h-3q-9.5-30.92-19-61.83c-.73-2.38-1.35-4.78-2-7.18a33.84,33.84,0,0,1,3.63,4.55c1.33,2.37,2.27,5,3.37,7.45l30,15,7.13,9.69c-6.53,0-12.57.44-18.51-.13-5.75-.55-7.18.6-5.78,6.41,1.16,4.8,2.56,9.57,3.37,14.43C331.83,507.05,331.75,511,332,514.84Z" transform="translate(-0.97 -0.84)"/><path class="cls-14" d="M109.94,372q.51-11.58,1-23.16L141,362q0,10.89,0,21.79Z" transform="translate(-0.97 -0.84)"/><path class="cls-15" d="M300.64,349.24l-12.78,10.31L283,362.77,275,367c-.35-6-.61-12-1.09-18a31.11,31.11,0,0,0-1.4-5.4l25.13-19.87c.44,1.66,1.21,3.31,1.26,5,.16,5.27-.07,10.54.14,15.81C299.13,346.05,300.09,347.64,300.64,349.24Z" transform="translate(-0.97 -0.84)"/><path class="cls-16" d="M141,383.76q0-10.9,0-21.79l30,6-1,20.86Z" transform="translate(-0.97 -0.84)"/><path class="cls-17" d="M272.54,343.51a31.11,31.11,0,0,1,1.4,5.4c.48,6,.74,12,1.09,18L250,378.66c-.32-4.77-.59-9.53-1-14.28-.22-2.55-.71-5.07-1.08-7.61Z" transform="translate(-0.97 -0.84)"/><path class="cls-18" d="M197,368.19l27-3.56q.48,10.55,1,21.07l-28,3.69Z" transform="translate(-0.97 -0.84)"/><path class="cls-19" d="M197,368.19v21.2l-27-.55L171,368Z" transform="translate(-0.97 -0.84)"/><path class="cls-20" d="M225,385.7q-.49-10.53-1-21.07l23.88-7.86c.37,2.54.86,5.06,1.08,7.61.42,4.75.69,9.51,1,14.28Z" transform="translate(-0.97 -0.84)"/><path class="cls-4" d="M283,362.77l4.88-3.22c1.66,5.8,3.27,11.61,5,17.39,5.85,19.62,11.57,39.29,17.71,58.82,1.85,5.89,4.91,11.4,7.42,17.08l-3,5c-1.1-2.49-2-5.08-3.37-7.45a33.84,33.84,0,0,0-3.63-4.55q-11.5-37.95-23-75.91C284.29,367.55,283.65,365.16,283,362.77Z" transform="translate(-0.97 -0.84)"/><path class="cls-21" d="M184.07,278.77H166.28V196.16c5.86,0,11.66-.17,17.43.14,1.24.06,2.73,1.63,3.52,2.87,5.72,9,11.29,18.05,16.91,27.08,1,1.52,2,3,3.14,4.76,6.75-10.86,13.13-21.36,19.83-31.66a8,8,0,0,1,5.38-3c5.1-.42,10.26-.14,15.72-.14v82.39H230.45V227l-1-.35L207,260.51l-22.89-34.64Z" transform="translate(-0.97 -0.84)"/><path class="cls-22" d="M358.74,260.75l-7,21-12.53,24.11L331.09,317a34.38,34.38,0,0,1-1-5.79c-.12-7.65.09-15.31-.15-23-.06-1.94-1.34-3.84-2.06-5.76.39-1.17.77-2.33,1.15-3.5,4.65-.92,1-4.7,2.36-6.78,6.13-12,9-24.91,10.61-38.1a161.91,161.91,0,0,0-9.85-79.67,5.51,5.51,0,0,1-.18-1.48c.69-3,1.86-6,2-9,.29-7.76,0-15.54.16-23.3,0-1.68.8-3.34,1.24-5,14.38,19.47,22.63,41.48,26.69,65.16a190.23,190.23,0,0,1,2.17,51Q361.45,246.3,358.74,260.75Z" transform="translate(-0.97 -0.84)"/><path class="cls-21" d="M331.34,272.23c-1.31,2.08,2.29,5.86-2.36,6.78h-60.3V196.57h61.8V212.4h-43.8v16.48h38.4v16.26h-38.2V262.6h44.46Z" transform="translate(-0.97 -0.84)"/><path class="cls-23" d="M87.31,212.9v65.58H69.06V212.92H44.18V196.44H112V212.9Z" transform="translate(-0.97 -0.84)"/><path class="cls-24" d="M35.88,304.83c-1.72-3.67-3.38-7.37-5.15-11-2-4-4-8-6-12-9-21.09-14.2-43-13.78-66L19,214.47H31.75c1.27,9.72,1.61,19.09,3.85,28,3.1,12.3,7.62,24.25,11.53,36.35-.71,1.42-2,2.82-2,4.26-.2,8.27,0,16.55-.16,24.83,0,2.24-.84,4.46-1.29,6.7l-3.78-4.75Z" transform="translate(-0.97 -0.84)"/><path class="cls-23" d="M127.37,196.32H145v82.31H127.37Z" transform="translate(-0.97 -0.84)"/><path class="cls-3" d="M54,106.88l-5-5C50.66,99,52.15,96,54.06,93.37,60.73,84,67.6,74.83,74.31,65.51S87.44,47.07,94,37.84c3.46.69,7.55.43,10.25,2.25,6.6,4.41,12.57,9.79,18.78,14.78-8.26,4.45-16.72,8.59-24.76,13.42A141.36,141.36,0,0,0,61.14,100C59.06,102.55,56.4,104.6,54,106.88Z" transform="translate(-0.97 -0.84)"/><path class="cls-10" d="M123,54.87c-6.21-5-12.18-10.37-18.78-14.78-2.7-1.82-6.79-1.56-10.25-2.25v-3c.62-.65,1.11-1.61,1.87-1.89,6.84-2.54,13.8-4.78,20.56-7.54,1.48-.61,3.33-3,3.18-4.41-.59-5.51,2.82-7.44,6.9-9.18,5.76-2.45,11-6.91,18-4.36-.18,2.19-.34,4.28-.51,6.38-.06,2.32.64,5-.29,6.88C139.2,29.84,141,39.41,141,48.86Z" transform="translate(-0.97 -0.84)"/><path class="cls-25" d="M43.64,314.59c.45-2.24,1.25-4.46,1.29-6.7.15-8.28,0-16.56.16-24.83,0-1.44,1.33-2.84,2-4.26a189.06,189.06,0,0,0,30.43,43.82c-.52,1.61-1.44,3.21-1.5,4.83-.19,5.44.08,10.9-.17,16.34-.07,1.43-1.42,2.79-2.18,4.18L54.48,329.65Z" transform="translate(-0.97 -0.84)"/><path class="cls-26" d="M327.83,282.51c.72,1.92,2,3.82,2.06,5.76.24,7.65,0,15.31.15,23a34.38,34.38,0,0,0,1,5.79,120.71,120.71,0,0,1-30.46,32.22c-.54-1.6-1.5-3.19-1.56-4.81-.21-5.27,0-10.54-.14-15.81-.05-1.67-.82-3.32-1.26-5A180.71,180.71,0,0,0,327.83,282.51Z" transform="translate(-0.97 -0.84)"/><path class="cls-26" d="M335.29,115.69c-.44,1.66-1.21,3.32-1.24,5-.14,7.76.13,15.54-.16,23.3-.11,3-1.28,6-2,9L306.8,113.25a39.26,39.26,0,0,0,1.14-6.26c.16-7.81.11-15.61.14-23.42q8.88,9.15,17.77,18.31Z" transform="translate(-0.97 -0.84)"/><path class="cls-17" d="M249,46l.83-.9c1.66,1.37,3.14,3.07,5,4.08,8.66,4.68,17.42,9.17,26.14,13.73,0,6.32.16,12.65-.09,19-.07,1.73-1.33,3.41-2.05,5.11l-31-18a21.79,21.79,0,0,0,1.09-4.6C249.07,58.2,249,52.07,249,46Z" transform="translate(-0.97 -0.84)"/><path class="cls-15" d="M278.84,86.93c.72-1.7,2-3.38,2.05-5.11.25-6.31.1-12.64.09-19L283.77,64l24.31,19.59c0,7.81,0,15.61-.14,23.42a39.26,39.26,0,0,1-1.14,6.26Z" transform="translate(-0.97 -0.84)"/><path class="cls-18" d="M198,35.77l22,3.32c0,5.39.13,10.79-.05,16.17,0,1.63-.91,3.24-1.4,4.86L187,57V42.84c.14-2.08.28-4.17.47-7.07Z" transform="translate(-0.97 -0.84)"/><path class="cls-20" d="M218.52,60.12c.49-1.62,1.35-3.23,1.4-4.86.18-5.38.06-10.78.05-16.17,7.13,1.8,14.25,3.63,21.39,5.37,2.53.61,5.1,1,7.65,1.49,0,6.12.06,12.25-.07,18.38a21.79,21.79,0,0,1-1.09,4.6Z" transform="translate(-0.97 -0.84)"/><path class="cls-27" d="M109.75,157.53c5.93,1.31,7.31,6.52,10.35,9.84,3.24,3.54,6,7.49,10.05,12.57,0-5.09-.3-8.8.09-12.44.35-3.21-1.83-7.19,2.79-10.68v29.5c-5.22-2.32-7.07-7.18-10.19-10.69s-6-7.5-9.93-12.46c0,7.14.1,13-.09,18.84,0,1.27-1.13,2.51-1.74,3.77-.45-1.25-1.25-2.49-1.27-3.74C109.69,174.07,109.75,166.1,109.75,157.53Z" transform="translate(-0.97 -0.84)"/><path class="cls-28" d="M249.94,157.6c5.95,1.07,7.27,6.38,10.33,9.68,3.26,3.51,6,7.49,10.2,11.21V164.06a22.93,22.93,0,0,1,.08-4,7,7,0,0,1,1.36-2.2c.61.75,1.76,1.5,1.77,2.27.13,8.44.08,16.88.08,26.19-5.71-2.17-7.47-7.14-10.6-10.63C259.88,172,257,168,253,163c0,7.42.06,13.48-.06,19.54,0,1.08-.81,2.15-1.25,3.22-.6-1.08-1.69-2.15-1.71-3.24C249.87,174.41,249.94,166.27,249.94,157.6Z" transform="translate(-0.97 -0.84)"/><path class="cls-27" d="M88.51,186.33a14.49,14.49,0,1,1,14.5-14A14.24,14.24,0,0,1,88.51,186.33Zm.13-3.12a11.19,11.19,0,0,0,11.07-11.12,11.33,11.33,0,0,0-11.12-11.62c-6,0-10.69,5-10.67,11.37S82.65,183.15,88.64,183.21Z" transform="translate(-0.97 -0.84)"/><path class="cls-28" d="M196.05,186.12c-.65-1-1.86-1.89-1.88-2.85-.15-8.28-.08-16.57-.08-25.45,4.14,0,7.91-.07,11.68,0,4.57.12,8.74,1.19,10.16,6.28,1.29,4.6-.5,7.37-6.69,10.58,2.52,3.5,5,7,7.49,10.41l-.53,1c-1.35-.64-2.92-1-4-2a16.21,16.21,0,0,1-3.29-4.36c-2.37-4.5-6-5.78-11.28-4.33-.15,3.2-.31,6.6-.46,10ZM197.54,161V171.8c3.68,0,7.28.63,10.48-.24,2-.54,4.6-3.34,4.63-5.17s-2.61-4.61-4.58-5.14C204.87,160.38,201.25,161,197.54,161Z" transform="translate(-0.97 -0.84)"/><path class="cls-27" d="M187.58,185.63h-20a24.08,24.08,0,0,1-.3-2.61c0-8.14,0-16.28,0-24.82h20.31l.24,1.71c-5.16,2.16-11,0-16.72,1.24v8.59l14.94,1-.14,2.11H171.11v9.75c5.51,1.05,11.51-.67,17,.94C187.91,184.21,187.75,184.92,187.58,185.63Z" transform="translate(-0.97 -0.84)"/><path class="cls-27" d="M311.07,158.13h21.08c-2.42,4.28-5.88,2.27-8.47,2.6a73.58,73.58,0,0,1-9.06.08v9.59h15.13l.06,2.39c-2.39.13-4.77.36-7.16.38-9,0-9,0-7.68,10.24h16.82l-.05,1.78H311.07V158.13Z" transform="translate(-0.97 -0.84)"/><path class="cls-27" d="M243.51,159.71c-5.17,2.84-11.4-.28-16.92,1.76v9h15.19l0,2.37c-2.4.12-4.8.34-7.2.35-9.08,0-9.08,0-7.7,9.33,5.46,1.27,11.51-.79,16.92,1.13l-.22,1.83H223.36a13.88,13.88,0,0,1-.26-1.93c0-8.31,0-16.62,0-25.33H243.3Z" transform="translate(-0.97 -0.84)"/><path class="cls-27" d="M305.35,181.2c-5.77,6.09-14.09,6.75-19.87,1.84a15,15,0,0,1-2.26-19.9,14.5,14.5,0,0,1,19.18-3.67c1,.65,1.54,2.09,2.29,3.17-1.23-.1-2.65.16-3.65-.37-5.52-2.91-11-2.24-14.48,2a12.06,12.06,0,0,0,0,15.19c3.51,4.2,9.2,4.95,14.45,1.93a15,15,0,0,1,3-1.32C304.29,180,304.75,180.64,305.35,181.2Z" transform="translate(-0.97 -0.84)"/><path class="cls-27" d="M70,180.08c-4.88,7.15-13.38,7.9-19.21,3S44,169,48.72,162.79A14.61,14.61,0,0,1,68,159.7c.9.62,1.34,1.91,2,2.9-1.23-.07-2.66.26-3.65-.26-5.62-3-10.93-2.38-14.48,1.83a11.7,11.7,0,0,0-.09,15.16c3.61,4.45,9,5.06,14.83,1.81A16.43,16.43,0,0,1,70,180.08Z" transform="translate(-0.97 -0.84)"/><path class="cls-28" d="M161.27,159.83c-5.07,2.5-11-.11-16.56,1.48v9.55h14.81l.07,1.77c-4.5,2.7-9.93-.07-15.09,1.77v11l-1.5.67c-.64-1-1.81-1.92-1.83-2.89-.15-8.27-.08-16.55-.08-25.08H161Z" transform="translate(-0.97 -0.84)"/><path class="cls-7" d="M141,48.86c0-9.45-1.82-19,2.69-28.14.93-1.88.23-4.56.29-6.88l3-1c-.08,3.58-.14,7.16-.24,10.74q-.36,12.14-.74,24.27Z" transform="translate(-0.97 -0.84)"/><path class="cls-5" d="M43.64,314.59l10.84,15.06c-5.95,2.6-5.89,8.92-7.14,13.61-2.09,7.78.18,9.45,8.39,9.63,3.93.08,8.05.05,11.72,1.2,4.12,1.3,7,.13,9.84-2.41l7.32,6c-1.14,1.68-2.34,3.33-3.41,5.06-.82,1.32-1.48,2.74-2.21,4.12-2.7,1.53-5.53,2.86-8.07,4.62C61.23,378.18,51.63,385,42,391.84l-7-9a8.76,8.76,0,0,1,.28-1.46c2.56-6.95,5.8-13.72,7.54-20.86,2.34-9.55,1.84-9.67-7.82-9.68q0-10.47,0-20.92c0-4.73-.31-9.49.17-14.17.26-2.54.71-5.9,4.71-5.91Z" transform="translate(-0.97 -0.84)"/><path class="cls-7" d="M42,391.84c9.64-6.81,19.24-13.66,28.93-20.38,2.54-1.76,5.37-3.09,8.07-4.62-2.78,7.55-5.71,15.05-8.28,22.68-3.39,10.06-6.49,20.21-9.72,30.32l-4.43,6.43C51.55,414.42,46.77,403.13,42,391.84Z" transform="translate(-0.97 -0.84)"/><path class="cls-12" d="M39.86,309.84c-4,0-4.45,3.37-4.71,5.91-.48,4.68-.16,9.44-.17,14.17q0,10.45,0,20.92l-12,7c-1.33-3-2.73-5.94-4-9a28.81,28.81,0,0,1-1-4c-3.07-5.16-6.31-10.23-9.18-15.5s-.41-8.33,5.65-9.69,11.62-4.14,17.32-6.52c.7-.3.92-2,1.18-3,.42-1.74.7-3.51,1-5.27h1.88Z" transform="translate(-0.97 -0.84)"/><path class="cls-1" d="M23,357.84l12-7c9.66,0,10.16.13,7.82,9.68-1.74,7.14-5,13.91-7.54,20.86a8.76,8.76,0,0,0-.28,1.46l-12.15-7.61,1.46-.91L25,363.86l-1.95-2Z" transform="translate(-0.97 -0.84)"/><path class="cls-12" d="M23,361.82l1.95,2Z" transform="translate(-0.97 -0.84)"/><path class="cls-29" d="M370,449.83c-.06,5.64.05,10.95-6.32,14.3-2.42,1.28-3.59,5.93-7.29,5.31-8.19-1.38-17-.9-24-6.8-2.16-1.83-5-2.85-7.11-4.75-1.79-1.64-2.91-4-4.33-6.05l3-3,4-4c6.87-5,13.69-10.13,20.62-15.07,3-2.15,6.25-4,9.39-5.95Z" transform="translate(-0.97 -0.84)"/><path class="cls-29" d="M339.19,305.86l12.53-24.11,3.28,7.09c.41,3.81.47,7.7,1.34,11.41,1.25,5.38.62,6.66-4.89,6.54C347.36,306.7,343.28,306.19,339.19,305.86Z" transform="translate(-0.97 -0.84)"/><path class="cls-10" d="M328,444.84l-4,4Z" transform="translate(-0.97 -0.84)"/><path class="cls-1" d="M283.77,64,281,62.86c-8.72-4.56-17.48-9-26.14-13.73-1.86-1-3.34-2.71-5-4.08L244,24.85c6.79-2,7.66,4.24,9.83,7.73,1.75,2.83,2.7,5.54,6.62,5.39a2.56,2.56,0,0,1,2,1.16c2,5.26,6.87,5,11.16,5.81,15.93,3,31.92,2.38,47.94,1,3.47-.29,7-.1,10.45-.13-.16.88-.1,2.4-.52,2.54-3.78,1.29-7.64,2.34-11.48,3.46-5.71,2.08-11.5,4-17.11,6.3-2.8,1.16-5.28,3.09-7.91,4.68Z" transform="translate(-0.97 -0.84)"/><path class="cls-12" d="M295,62.82c2.63-1.59,5.11-3.52,7.91-4.68,5.61-2.33,11.4-4.22,17.11-6.3a34.13,34.13,0,0,0,4.81,1.95c2.9.73,5.87,1.18,8.81,1.74l0,2.25c-2.63.35-5.28.57-7.87,1.1-2.3.47-4.53,1.29-6.78,1.95Z" transform="translate(-0.97 -0.84)"/><path class="cls-29" d="M94,34.84v3c-6.55,9.23-13.06,18.49-19.68,27.67S60.73,84,54.06,93.37C52.15,96,50.66,99,49,101.86l-4-1C42.41,95.44,40,90,37.19,84.67c-3.59-6.84-7.53-13.49-11.11-20.33-1-2-1.41-4.32-2.09-6.5,8.88-2.93,17.79-5.78,26.65-8.79C60.45,45.71,70.21,42.24,80,38.83Z" transform="translate(-0.97 -0.84)"/><path class="cls-7" d="M77.29,351.68c-2.85,2.54-5.72,3.71-9.84,2.41-3.67-1.15-7.79-1.12-11.72-1.2-8.21-.18-10.48-1.85-8.39-9.63,1.25-4.69,1.19-11,7.14-13.61L73.71,348Z" transform="translate(-0.97 -0.84)"/><path class="cls-1" d="M88.64,183.21c-6-.06-10.7-5.06-10.72-11.37s4.65-11.34,10.67-11.37a11.33,11.33,0,0,1,11.12,11.62A11.19,11.19,0,0,1,88.64,183.21Z" transform="translate(-0.97 -0.84)"/><path class="cls-5" d="M197.54,161c3.71,0,7.33-.63,10.53.24,2,.53,4.61,3.37,4.58,5.14S210,171,208,171.56c-3.2.87-6.8.24-10.48.24Z" transform="translate(-0.97 -0.84)"/></svg>