<svg id="Layer_1" data-name="Layer 1" xmlns="http://www.w3.org/2000/svg" viewBox="0 0 667 375"><defs><style>.cls-1{fill:#141414;}.cls-2{fill:#171717;}.cls-3{fill:#131313;}.cls-4{fill:#111;}.cls-5{fill:#161616;}.cls-6{fill:#0f0f0f;}.cls-7{fill:#0a0a0a;}.cls-8{fill:#080808;}.cls-9{fill:#020202;}.cls-10{fill:#252525;}.cls-11{fill:#121212;}.cls-12{fill:#0e0e0e;}.cls-13{fill:#181818;}.cls-14{fill:#1b1b1b;}.cls-15{fill:#060606;}.cls-16{fill:#1c1c1c;}.cls-17{fill:#0b0b0b;}.cls-18{fill:#070707;}.cls-19{fill:#0c0c0c;}.cls-20{fill:#212121;}.cls-21{fill:#1d1d1d;}.cls-22{fill:#191919;}.cls-23{fill:#1a1a1a;}</style></defs><title>timerbg</title><path class="cls-1" d="M539,0h30c-.34,4.65,1.88,6.91,6.4,7.88,2.23.47,4.29,2.16,6.19,3.61,4.55,3.46,8.38,7.56,14.55,9,3.71.87,7.15,4.59,9.77,7.79,2,2.45,1.3,5.87-2,7.63a6.91,6.91,0,0,0-3.5,8.91c1.09,3.15,3.61,5.81,5.8,9.14.13-.18-.22.34-.58.87l-4.08,6.06c2.32.74,4.59,1.9,7,2.14,4.73.47,6.5,2.29,4.25,6.95-3.14,6.51-2.41,11.49,3.31,15.82A5.69,5.69,0,0,1,617,87c-2.51,4.09-4.27,9-7.72,12.07-4.54,4-9.74,6.87-9.27,13.94l-22-11a32.08,32.08,0,0,0,1.81-5.51,3.78,3.78,0,0,1,.56.86l3.85-3.47-1.26-1.31a18.27,18.27,0,0,0-3.15,3.92,18.61,18.61,0,0,1-3.82,3.54A81.76,81.76,0,0,1,568,97.26c-6.14-2.91-12.07-6.32-18.3-9-7.16-3.09-10.26-1.58-13.7,5.77-8.85,11-17.74,21.91-26.49,33-1.14,1.45-1.54,3.49-2.28,5.25,1.95.6,3.89,1.68,5.84,1.71,11.29.17,22.59.08,33.89.08,3.18,2.77,6.43,5.47,9.51,8.34,1.95,1.81,3.65,3.89,5.47,5.85l8.11,8.76c-8,2.35-16,4.64-24,7.11a5.52,5.52,0,0,0-2.48,2.36C539,173.61,534.48,180.83,530,188l-4,3,0,3c-3.91,3.56-8.56,4.85-13.77,4.62a8.82,8.82,0,0,0-3.91.49C495.12,205,482,211,468.91,217c0,.67,0,1.34,0,2,0,1.33,0,2.66.05,4-2.37,5.73-4.62,11.51-7.19,17.15-.83,1.82-2.51,3.25-3.8,4.85-.48-1.93-.87-3.89-1.47-5.78-1-3.24-2.77-4.27-5.14-1.13-2.59,3.43-4.8,7.17-7.53,10.47-3.35,4.07-3.2,7.42,1.14,10.49L430.89,264c.38-3.28.76-6.55,1.13-9.83a37.61,37.61,0,0,0,3.17-5c4.64-10.68,9.14-21.41,13.7-32.13,5.2-9.2,11.27-18.08,10.09-29.51a79.56,79.56,0,0,1,0-8.46,47.75,47.75,0,0,0,4.15-4.27c3.08-4,5.85-8.33,9-12.28,3.43-4.25,7.34-8.11,10.72-12.39.95-1.21.77-3.32,1.11-5-1.83-.15-3.94-1-5.43-.31-6.25,2.66-12.25,5.88-18.45,8.66-4.64,2.08-9.45,3.78-14.18,5.65-1.33-1.34-2.65-2.69-4-4l-2-2-24.87-38.89-2,.92c.22,2,.12,4.19.71,6.13,3,9.69,5.65,19.48,9.25,28.93,3.44,9,3.25,17.86.84,26.92-1.58,1.65-3.05,3.42-4.76,4.92-8.37,7.4-16.8,14.73-25.22,22.09-.18-3.22-1.51-7-.28-9.53,2-4,1.21-6.11-1.8-8.95-5.53-5.23-9.47-11.18-5.91-19.47a167.61,167.61,0,0,0,9.38-27.68c2.37-10,7-19.7,12.17-28.6,2.36-4,6.31-7.2,7-12.33.07-.53.86-1,1.3-1.46,7.17-8,14.37-16,21.5-24,2.4-2.71,4.39-5.81,7-8.32,2.26-2.18,5.09-3.78,7.66-5.64l5,3,6,2c5.1-.06,10.25.28,15.29-.28,11.93-1.34,23.81-3.1,35.71-4.69h0l.88,1.32c.09-.39.17-.78.26-1.17,5.93-4,11.33-8.22,13.08-15.91C531.38,28.11,538.45,14.91,539,0ZM417.06,105.88c4.72,2.49,8,4.73,11.68,6s7.8,1.61,11.67,2.57c1.22.3,2.22,1.39,3.39,2,5.58,2.82,11.05,5.89,16.81,8.27a96.58,96.58,0,0,0,16,5,113.62,113.62,0,0,0,18.6,2.69c3.56.19,4.88-2.84,3-5.34q-3.11-4.16-6.31-8.24c-3.73-4.73-3.57-7.77-.45-13.14a130.88,130.88,0,0,0,7.3-15.19,6.94,6.94,0,0,0-.2-5.2c-2.09-4-14.93-7.74-19-6-12.47,5.23-23.85,13.21-37.66,15.11a7.52,7.52,0,0,0-1.83.75c-6,2.63-12.05,5.22-18,7.9C420.52,103.75,419.13,104.7,417.06,105.88Zm98.3-40.66-2.8-.83c-2.26,5.39-4.72,10.71-6.66,16.2-.5,1.42.39,3.5,1.13,5,.2.4,3.19.17,3.29-.2C512.15,78.73,513.73,72,515.36,65.22Zm82.37,16.37c-1.22-.75-2.16-1.72-2.64-1.53-.89.36-1.51,1.39-2.24,2.15.74.63,1.58,1.85,2.21,1.75C595.91,83.82,596.59,82.67,597.73,81.59Z" transform="translate(0.05 -0.03)"/><path class="cls-2" d="M452,58c-2.57,1.86-5.4,3.46-7.66,5.64-2.58,2.51-4.57,5.61-7,8.32C430.19,80,423,88,415.82,96c-.44.49-1.23.93-1.3,1.46-.7,5.13-4.65,8.28-7,12.33-5.21,8.9-9.8,18.63-12.17,28.6A167.61,167.61,0,0,1,386,166.09c-3.56,8.29.38,14.24,5.91,19.47,3,2.84,3.78,4.91,1.8,8.95-1.23,2.53.1,6.31.28,9.53l0,2-17,38c-3.73-2-7.55-3.83-11.17-6-5.51-3.31-11-6.74-16.29-10.32-5.6-3.77-11-7.78-16.54-11.68l1-6c6.22-5.09,5.43-12.84,7.34-19.53,2.83-9.91-.23-18.58-6.32-26.45v-3c2.69-2.18,5.65-4.12,8-6.61,3.12-3.29,6.28-4.66,10.63-2.62,3.61,1.69,6.43.18,8.74-2.7,5.19-6.45.24-21.18-7.9-23.4-3.37-.91-5.88.29-6.07,3.85a42.18,42.18,0,0,0,1,9.31c.52,3,.19,5.7-3.39,5.9-7.4.4-15.15,1.81-21-4.74l-7-18c.22-2.8.75-5.62.55-8.39-.13-1.76-.93-4.52-2.13-5-5.54-2.09-6.83-6.68-8.12-11.58-.35-1.34-1.7-3.45-2.6-3.45-8.08,0-11-6.24-14.68-11.61,5.5-2.15,7.47-6.69,8.21-12.09s.45-11.42,6.11-15c.89-.57,1.36-2.34,1.42-3.59.48-9,1-17.93,1.08-26.89,0-5.17-2.47-6.62-7.55-5.67a39.83,39.83,0,0,1-6.29.25c0-1,0-2,.05-2.93L311.11,5.94c4.35,5.63,8.78,11.19,13,16.9C330.47,31.35,336.5,40.1,343,48.49c2.93,3.78,4.58,3.41,6.22-.92C355.2,31.75,361.05,15.88,367,0h6c-2.53,7.2-4.95,14.44-7.64,21.58-1.66,4.41-1,5.8,3.91,5.27,6.25-.68,12.41-2,18.64-2.94,11.64-1.71,23.3-3.31,34.95-5l19.12,25.07c.68,1,1.35,2,2,3,0,.33,0,.66,0,1l5,6,2,1C451.28,56,451.62,57,452,58ZM306.41,88l.81,0c0-.66.08-1.32.11-2l-.83,0Z" transform="translate(0.05 -0.03)"/><path class="cls-3" d="M558,375H421c.65-6.07,1.61-12.12,1.76-18.2a8.1,8.1,0,0,0-3.15-6.06c-5.89-3.71-6.05-3.47-1.17-8.23.83-.81,1.62-1.67,2.49-2.43,5.94-5.12,7.41-12,4.07-19.09l-6-6c2.61-2.35,4.67-1.32,6.9.8,4.66,4.42,8.55,4.23,12.78-.32.68-.72,1.41-1.41,2.16-2.06,4.41-3.86,4.45-7.09.53-11.36-5.82-6.34-11.39-12.92-17.22-19.26-1.42-1.54-3.41-2.56-5.14-3.81v-2c.95-1.73,1.65-3.7,2.92-5.15,2.17-2.46,4.7-4.6,7.08-6.87,2.87,1.27,5.64,3.34,8.61,3.69,13.28,1.56,26.63,2.55,39.94,3.91,4,.41,6.57-1,8.34-4.65.93-1.95,2.74-5,4.12-5,7.25.13,8.35-4.58,9-10,.67-2,1.34-4,2-6l3-5c0-.33,0-.67,0-1l2-2q4.5-7.5,9-15h2a44.38,44.38,0,0,1-.75,4.89c-3.58,13.57-7.33,27.09-10.74,40.7-.57,2.27.25,4.88.43,7.34,1.52,3.38,4.4,3,7.24,2.53q13.41-2.21,26.82-4.48c1.89,3.9,3.82,7.77,5.65,11.69q9.21,19.65,18.35,39.34c3.92,1,7.79,2.3,11.76,2.86,5.05.7,10.19.79,15.29,1.15-1,2.26-1.72,4.77-3.16,6.74-5.49,7.51-11.22,14.84-16.86,22.24C564.17,362.38,558.7,366.79,558,375ZM475.14,299.6c1.37-.63,2.23-1.05,3.11-1.41,6.42-2.67,13-5,19.18-8.15a8.34,8.34,0,0,0,3.94-6c.06-1.44-2.84-3.53-4.82-4.39a25.33,25.33,0,0,0-8.69-1.91c-1.74-.09-4.22.67-5.18,1.95-2.56,3.39-4.45,7.29-6.68,10.95-1.18,1.93-2.1,4.53-3.86,5.49-8.62,4.69-7.56,12.5-6.91,20.11.28,3.35,2.34,3.83,4.75,1.51,2-2,3.9-4.09,5.87-6.1C481.49,305.87,481.49,305.36,475.14,299.6Z" transform="translate(0.05 -0.03)"/><path class="cls-1" d="M0,51V20c3.68,1.19,4,4,3.55,7.25-.34,2.46-1.1,5-.91,7.38.23,2.84,1.22,6,5.13,5.17a19.19,19.19,0,0,0,7.73-3.26c7.05-5.64,13.69-11.78,20.66-17.52a50,50,0,0,1,9.73-6.58C51.25,9.87,54.88,6.36,55,0H86c-2.34,3.14-4.67,6.29-7,9.42-2.09,2.79-5.6,4.87-5,10.38,3.1-2.85,5.23-5.08,7.66-6.92,1.29-1,3.09-1.3,4.67-1.91.23,1.68.47,3.35.71,5v1l-2,2c-5.66,3.73-11.48,7.24-16.89,11.29-2.3,1.72-3.76,4.58-5.6,6.93,3.45.68,6.9,1.42,10.37,2,.75.12,1.61-.57,2.41-.54,7.87.35,15.88,0,23.56,1.44,5.28,1,6.78,1.72,8.85-3.5,1.81-4.54,4.89-6.22,9.43-6.76,7.75-.9,15.46-2.18,23.18-3.29,3.59-.52,7.28-1.79,10.77-1.38,6.81.79,12.79-1.48,18.82-3.76,5-1.89,5.12-4.26,2.17-8.65C169.42,8.94,167.93,4.32,166,0h51c-1.44,1.78-2.53,4.19-4.39,5.22-5.72,3.2-11.73,5.88-17.62,8.76q-1,3-2,6c-1.91,2-3.9,4-5.7,6.13s-1.95,4,1.17,4.82c3.73,1,4.27,3.49,4,6.83C191.76,43.86,191.4,50,191,56c-2.49,7.76-5.75,15.39-3.93,23.86l-1.1,1.1-15,7.06c-2.16-6.35-4.71-12.6-6.32-19.09-.74-3-.58-6.91.85-9.48,2.32-4.17,6-7.58,9.18-11.28.12-.13.62.07.94.12,1.15,5.34,3.76,7.69,8.23,7.42,2.73-.16,3.77-1.49,3.43-4.27-.41-3.51,0-7.2-.91-10.55-.77-2.8-2.72-5.4-4.66-7.63-.4-.46-3.11,1.1-4.75,1.73-6.39,2.43-13.44,3.67-18,9.56-3.41,4.44-6.7,9-10.05,13.45h-3c-1-2.71-3-5.59-2.68-8.1.88-6.07,1.56-11.46-5.45-14.3-.38-.16-.59-.79-.85-1.21-2.1-3.37-4.15-3.63-6.21,0-1.65,3-3.86,4-6.19,1-2.71-3.48-6.33-3.69-9.3-1.8-1.84,1.17-2.47,4.51-3.26,7-1,3.23-1.44,6.64-2.52,9.85A67.84,67.84,0,0,1,106,58v5q-1,7-2,14V99q-1,6.51-2,13c-.64,1.86-1.63,3.67-1.87,5.57-.93,7.36-2.32,8.34-9.72,6.49-5.47-1.37-11-2.7-16.43-4L70.87,120c2.26-4.43,1-8.53-.61-12.92-3.09-8.55-5.63-17.31-8.4-26q-1-12.51-1.94-25c-.56-4.76,1.76-10.13-3-14v0c-1.85-.54-3.85-1.83-5.53-1.5C34.25,43.86,17.11,47.48,0,51Z" transform="translate(0.05 -0.03)"/><path class="cls-4" d="M108,375H76c1.2-3,2.07-6.29,3.67-9.12C86.26,354.2,93.13,342.62,99.91,331c.38-1.31.76-2.62,1.15-3.92,1.08-1,2.54-1.8,3.19-3,4.58-8.67,8.86-17.5,13.48-26.14,6.71-12.55,13.2-25.25,20.61-37.39,5.52-9,12.33-17.32,18.61-25.9,5.3-7.23,10.66-14.4,16-21.6q1.51-2,3-4c1.53-2.8,3.79-5.44,4.42-8.43.85-4,.44-8.36.57-12.56,5.22,7,10.46,13.92,11.42,23.2.55,5.4,2.21,10.72,3.82,15.94.57,1.83,2.48,3.25,3.78,4.86-6.17,10.64-12.48,21.21-18.46,32-3.45,6.2-6.38,12.68-9.54,19-.37,1.68-.73,3.36-1.1,5-1.88,1.52-4.26,2.69-5.54,4.6-8.43,12.48-16.66,25.1-24.88,37.72-4.24,6.5-8.33,13.1-12.49,19.66C119.28,356.77,113.21,365.58,108,375Z" transform="translate(0.05 -0.03)"/><path class="cls-2" d="M600,113c-.47-7.07,4.73-10,9.27-13.94,3.45-3,5.21-8,7.72-12.07,3,2.3,6,4.54,8.9,6.93,2.54,2.09,4.74,4.65,7.43,6.51,8.46,5.85,17.12,11.4,25.61,17.2,2.82,1.92,5.38,4.24,8.06,6.37v36c-5.77-2.8-10.69-1.16-15,3.08q-16.34,16.24-32.52,32.63c-3.83,3.89-8,4-10.53-.71s-3.94-10.14-6.16-15.1a15.4,15.4,0,0,0-4.11-5.55c-5.08-4.09-10.58-7.67-15.56-11.87-1.14-1-.83-3.63-1.19-5.51,3.48-7.17,7.33-14.18,10.35-21.53S597.44,120.52,600,113Z" transform="translate(0.05 -0.03)"/><path class="cls-4" d="M667,124c-2.68-2.13-5.24-4.45-8.06-6.37-8.49-5.8-17.15-11.35-25.61-17.2-2.69-1.86-4.89-4.42-7.43-6.51-2.9-2.39-5.93-4.63-8.9-6.93a5.69,5.69,0,0,0-.91-1.18c-5.72-4.33-6.45-9.31-3.31-15.82,2.25-4.66.48-6.48-4.25-6.95-2.37-.24-4.64-1.4-7-2.14l4.08-6.06c.36-.53.71-1,.58-.87-2.19-3.33-4.71-6-5.8-9.14a6.91,6.91,0,0,1,3.5-8.91c3.28-1.76,4-5.18,2-7.63-2.62-3.2-6.06-6.92-9.77-7.79-6.17-1.45-10-5.55-14.55-9-1.9-1.45-4-3.14-6.19-3.61-4.52-1-6.74-3.23-6.4-7.88h50c-1,6.54,5.38,8.59,7.89,13,.76,1.34,1.62,3.35,1.15,4.57C623.7,28.83,617.58,39.48,617.72,52a8.93,8.93,0,0,1-.76,2.87c-2.32,6.48-1.17,7.87,6,7.12a83.1,83.1,0,0,1-3.5,8.16c-3.15,5.67-1.89,8.84,4.57,8.71,7.24-.15,14.46-1.47,21.68-2.34A61.5,61.5,0,0,0,655.5,75c1.24-.36,3-2.61,2.78-3.65-1-4.76-12.53-12.18-17.41-11.85s-10,.36-14.93.51c-1.15-8.29,4-14.93,6.06-22.4.28-1,3.81-2.36,5-1.79,5.74,2.82,11.21,6.22,16.73,9.48a6.47,6.47,0,0,1,2.17,2c2.58,4.13,6.58,5.36,11.08,5.7Z" transform="translate(0.05 -0.03)"/><path class="cls-5" d="M170.86,288.05c.37-1.67.73-3.35,1.1-5,4,.1,8.63-1,12,.52,8.06,3.6,15.53,8.5,23.29,12.78,7.19,4,14.44,7.81,21.66,11.71l-2.86,7.45c-4.37,11.42-6.75,23.72-15.24,33.3-1.48,1.66-2,4.13-3,6.22-3.67,4.41-7.5,8.7-10.93,13.29-1.43,1.92-2,4.48-3,6.74h-9c4.93-6.16,9.62-12.53,14.85-18.44,5-5.68,4.76-13.69-1.52-19.23-1.69,3.61-2.79,7.57-5.11,10.59C187,356,184.12,365.36,182,375H172c-2.34-7.24-9-10.47-14.13-15.07,1.8-9.29,3.48-18.6,5.43-27.86C166.32,317.51,170.68,303.15,170.86,288.05Z" transform="translate(0.05 -0.03)"/><path class="cls-6" d="M667,283v92h-9c0-10.09-5.51-18.24-9.64-26.84-.52-1.08-2.9-2.27-3.93-1.93-6.34,2.13-12.36,6.26-14.21,12.19S625.55,369.6,623,375H594c1.71-1.44,3.19-3.46,5.16-4.22,6.79-2.61,13.74-4.8,20.65-7.1,3.84-1.27,4.42-3.56,1.85-6.64-2.43-2.91-4.56-6.07-6.94-9s-5.12-6-7.69-9c0-1,0-2,0-3l-2-2c-.34-.67-.67-1.33-1-2l3-2c8.88-2.2,14.25-7.08,13-17v-7c1-2.34,2-4.67,3-7,0-1,0-2,0-3,1-2.33,2-4.67,3-7,0-.66,0-1.33,0-2,8-2.47,9.8-1.14,10,7.31a36,36,0,0,0,.2,6,5.15,5.15,0,0,0,2.15,3.37c.63.34,2.4-.76,3.23-1.63,5-5.24,7.93-12.08,14.71-16.22C660,283.56,662.83,282.05,667,283Z" transform="translate(0.05 -0.03)"/><path class="cls-7" d="M207.84,355c1-2.09,1.53-4.56,3-6.22,8.49-9.58,10.87-21.88,15.24-33.3L229,308c.32,0,.65-.09,1-.12,19.1,8.2,38.22,16.36,57.29,24.65,1.75.76,3.16,2.32,4.73,3.5-2.33,8.88-8.24,15.29-14.46,21.64-5.26,5.39-12.28,9.4-14.54,17.33H223a50.86,50.86,0,0,0-3.26-5.42C215.82,364.68,211.8,359.86,207.84,355Z" transform="translate(0.05 -0.03)"/><path class="cls-8" d="M0,133V64c7.31-3.72,14.48-7.75,22-11.09s15.32-6,23-8.94c-.05,2.49-.2,5-.13,7.48.34,12.63,1.16,25.27,1,37.9-.2,15.18-5.34,28.11-19.59,35.8-3.05,1.65-2.84,4.16-2.23,6.9-4.6.87-9.17,2.18-13.8,2.47C6.8,134.75,3.35,133.59,0,133Z" transform="translate(0.05 -0.03)"/><path class="cls-7" d="M0,227V171l37,8c7.47,6.55,15.71,7.78,25,4.15,3.82-1.5,8-2.11,12-3.12.31,11.35-7,19.95-10.85,29.8-.53,1.38-2.29,2.32-3.58,3.34-4.27,3.36-8.61,6.64-12.88,10-2.3,1.81-2.18,3.52.38,5,1,.58,2,1.24,2.93,1.86l-38.06-.92Z" transform="translate(0.05 -0.03)"/><path class="cls-1" d="M581.93,157c.36,1.88.05,4.55,1.19,5.51,5,4.2,10.48,7.78,15.56,11.87a15.4,15.4,0,0,1,4.11,5.55c2.22,5,3.62,10.33,6.16,15.1s6.7,4.6,10.53.71q16.17-16.41,32.52-32.63c4.26-4.24,9.18-5.88,15-3.08v60c-6.55-1.1-8.79,1-7.11,6.8.28.94.83,1.81,1.08,2.76,1.05,4.07,2,8.17,3.08,12.24.91,3.42,2,6.8,3,10.2v2a20.91,20.91,0,0,0-2.34,3.11C661.48,263.29,660.1,264,653,263h-1c.07-6.23-1.56-11.49-8-14l-2-2c-.67-.66-1.33-1.33-2-2h-1c7.16-11.44,18.19-20.38,23-33.53-3.7,1-6.61,2.65-9.32,2.38-8.52-.86-17-2.17-25.42-3.83-6.6-1.31-13-3.35-18.26,3,0-.66,0-1.32,0-2,1.79-1.67,3.61-3.33,0-5l-3-1c-.3-1.74-.06-3.88-1-5.13-6.44-8.58-13.22-16.9-19.69-25.46-4.28-5.66-8.22-11.57-12.32-17.36Z" transform="translate(0.05 -0.03)"/><path class="cls-4" d="M166,0c2,4.29,3.47,8.91,6.07,12.78,2.95,4.39,2.85,6.76-2.17,8.65-6,2.28-12,4.55-18.82,3.76-3.49-.41-7.18.86-10.77,1.38-7.72,1.11-15.43,2.39-23.18,3.29-4.54.54-7.62,2.22-9.43,6.76-2.07,5.22-3.57,4.48-8.85,3.5-7.68-1.41-15.69-1.09-23.56-1.44-.8,0-1.66.66-2.41.54-3.47-.58-6.92-1.32-10.37-2,1.84-2.35,3.3-5.21,5.6-6.93C73.47,26.27,79.29,22.76,85,19c.66-.67,1.33-1.33,2-2V16c3.41-1.92,7.27-3.34,10.12-5.89C100.56,7,106.43,6.05,107,0Z" transform="translate(0.05 -0.03)"/><path class="cls-6" d="M56,375H0V301c1.18,1.32,2.79,2.45,3.46,4C8,315.62,15,323.77,25.83,328.21a5.93,5.93,0,0,1,1.71,1c7.79,7.05,15.54,14.16,23.35,21.18,2,1.76,2.26,3.15.53,5.44-4,5.36-3.24,10.26,1.67,14.74C54.35,371.71,55,373.52,56,375Z" transform="translate(0.05 -0.03)"/><path class="cls-3" d="M56,375c-.94-1.51-1.6-3.32-2.86-4.47-4.91-4.48-5.71-9.38-1.67-14.74,1.73-2.29,1.43-3.68-.53-5.44-7.81-7-15.56-14.13-23.35-21.18a5.93,5.93,0,0,0-1.71-1C15,323.77,8,315.62,3.41,305c-.67-1.55-2.28-2.68-3.46-4V274c4.48,1.11,9.53,1.28,13.31,3.55,6.62,4,12.42,9.31,18.65,13.95a61.28,61.28,0,0,0,6,3.54q9.52,28.49,19.06,57,1.5,11.49,3,23Z" transform="translate(0.05 -0.03)"/><path class="cls-9" d="M170.86,288.05c-.18,15.1-4.54,29.46-7.61,44.05-1.95,9.26-3.63,18.57-5.43,27.86-6,4-11.95,8-14.87,15.07H118c1.13-3.66,2-7.42,3.47-10.95,2-4.78,4.33-9.38,6.53-14.05,4.16-6.56,8.25-13.16,12.49-19.66,8.22-12.62,16.45-25.24,24.88-37.72C166.6,290.74,169,289.57,170.86,288.05Z" transform="translate(0.05 -0.03)"/><path class="cls-5" d="M425,321c3.34,7.1,1.87,14-4.07,19.09-.87.76-1.66,1.62-2.49,2.43-4.88,4.76-4.72,4.52,1.17,8.23a8.1,8.1,0,0,1,3.15,6.06c-.15,6.08-1.11,12.13-1.76,18.2H377a27.29,27.29,0,0,0,0-3c-.83-7.49,1.89-12.51,9.48-14.74a47.88,47.88,0,0,0,9.05-4.21c2.79-1.51,3-3.48.19-5.25-1.68-1-3.59-1.71-5.29-2.72-2.23-1.31-4.36-2.81-6.52-4.22l2.08-3.87,2-2,1.94-.07Z" transform="translate(0.05 -0.03)"/><path class="cls-10" d="M367,0c-5.9,15.85-11.75,31.72-17.74,47.54-1.64,4.33-3.29,4.7-6.22.92-6.49-8.39-12.52-17.14-18.86-25.65-4.24-5.71-8.67-11.27-13-16.9L315,0Z" transform="translate(0.05 -0.03)"/><path class="cls-11" d="M422.81,19c-11.65,1.65-23.31,3.25-34.95,5-6.23.91-12.39,2.26-18.64,2.94-4.9.53-5.57-.86-3.91-5.27C368,14.47,370.42,7.23,373,0h81l-6,6Z" transform="translate(0.05 -0.03)"/><path class="cls-12" d="M622.94,62c-7.15.75-8.3-.64-6-7.12a8.93,8.93,0,0,0,.76-2.87c-.14-12.56,6-23.21,10.27-34.44.47-1.22-.39-3.23-1.15-4.57C624.33,8.62,618,6.57,619,0h19c0,4.46,0,8.92,0,13.38,0,3.62,1.72,5.25,5.39,5.62,7.87.81,15.71,2,23.56,3V53c-4.5-.34-8.5-1.57-11.08-5.7a6.47,6.47,0,0,0-2.17-2c-5.52-3.26-11-6.66-16.73-9.48-1.16-.57-4.69.76-5,1.79-2,7.47-7.21,14.11-6.06,22.4Z" transform="translate(0.05 -0.03)"/><path class="cls-6" d="M513.94,58c-11.9,1.59-23.78,3.35-35.71,4.69-5,.56-10.19.22-15.29.28,3.6-1,7.15-2.21,10.8-3,4.58-1,6.71-3.72,6.88-8.35.13-3.77.72-7.53.84-11.3.15-4.93,0-9.88,0-15.75L473.92,29,476,24c10.44-4.67,14.49-14.13,18-24h8c0,8,.79,16-.21,23.84-1.09,8.47,4.86,12.92,8,18.92C512,40.36,514,38.2,516,36a54.93,54.93,0,0,1-1.59,7.29C512.64,48.23,510.8,53,513.94,58Z" transform="translate(0.05 -0.03)"/><path class="cls-4" d="M55,0c-.07,6.33-3.7,9.84-9.11,12.44a50,50,0,0,0-9.73,6.58c-7,5.74-13.61,11.88-20.66,17.52a19.19,19.19,0,0,1-7.73,3.26c-3.91.85-4.9-2.33-5.13-5.17-.19-2.42.57-4.92.91-7.38C4,24.06,3.63,21.22,0,20V0Z" transform="translate(0.05 -0.03)"/><path class="cls-12" d="M194.94,14c5.89-2.88,11.9-5.56,17.62-8.76,1.86-1,2.95-3.44,4.39-5.22h14c-.48,6.75-.86,13.5-1.48,20.24-.41,4.44-2.92,6.85-7.57,6.73-1.65-.05-3.3,0-5,0l-5,1c-5.84.67-6.09,1.28-2.95,6.15,3.38,5.24,6.65,10.56,10,15.84-3.11,1.4-6.1,3.47-9.36,4.06-6.13,1.11-12.42,1.35-18.65,2,.45-6.08.81-12.17,1.39-18.24.32-3.34-.22-5.86-4-6.83-3.12-.82-2.88-2.8-1.17-4.82s3.79-4.09,5.7-6.13c.13,2.15-.18,4.47.54,6.4a5.87,5.87,0,0,0,3.77,3.22,7,7,0,0,0,5.38-1.32c.77-.72.41-3.6-.41-4.88C200.06,20.1,197.39,17.13,194.94,14Z" transform="translate(0.05 -0.03)"/><path class="cls-1" d="M219,50c-3.31-5.28-6.58-10.6-10-15.84-3.14-4.87-2.89-5.48,2.95-6.15.16,1.95,0,4,.61,5.81.46,1.28,2,2.17,3.1,3.23,1-1.3,2.7-2.57,2.78-3.93.12-2-.94-4.07-1.49-6.1,1.65,0,3.3-.09,5,0,4.65.12,7.16-2.29,7.57-6.73.62-6.74,1-13.49,1.48-20.24h38c-.94,2.18-1.48,4.68-2.89,6.49C260.84,13.23,256,19.88,260,29l-21.69-.87a41.66,41.66,0,0,0-4.47,0c-6.48.41-8.18,2.48-8.9,8.91-.57,5.05-2,10-3,15Z" transform="translate(0.05 -0.03)"/><path class="cls-6" d="M344,375H332V368.7L317,375H265c6.79-2.95,13.69-5.69,20.33-8.93,3.12-1.52,6.7-3.42,8.43-6.17,3.93-6.28,6.85-13.2,10.18-19.86l2-1c.94.9,1.9,1.77,2.82,2.69,2.59,2.58,5.75,4.83,7.55,7.88,1.68,2.84,2.1,6.51,2.73,9.88.87,4.69,3.86,8.1,7.35,6.87,4.27-1.5,8.16-4.07,12.2-6.22,1.82-1,3.59-2.05,5.39-3.07Q344,366,344,375Z" transform="translate(0.05 -0.03)"/><path class="cls-13" d="M37.88,295.07a61.28,61.28,0,0,1-6-3.54c-6.23-4.64-12-10-18.65-13.95C9.48,275.31,4.43,275.14,0,274V227l11.93,2.1c.36,1,.72,1.92,1.07,2.88l-3.21,8-1.64-.23c2.07,4.29,4,8.67,6.31,12.79.69,1.21,2.59,2.11,4.08,2.39a9.9,9.9,0,0,1,8,6.64c2.56,6.8,5,13.65,7.47,20.47Q35.93,288.55,37.88,295.07Z" transform="translate(0.05 -0.03)"/><path class="cls-3" d="M344,375q0-9,0-18l13-4,3-.07,3.1-1.81c1.48,0,3-.06,4.45,0,8.66.18,11.57-1.83,14.47-10.08l1.92-.14c2.16,1.41,4.29,2.91,6.52,4.22,1.7,1,3.61,1.68,5.29,2.72,2.84,1.77,2.6,3.74-.19,5.25a47.88,47.88,0,0,1-9.05,4.21c-7.59,2.23-10.31,7.25-9.48,14.74a27.29,27.29,0,0,1,0,3Z" transform="translate(0.05 -0.03)"/><path class="cls-4" d="M667,283c-4.12-1-7,.53-10.73,2.82-6.78,4.14-9.69,11-14.71,16.22-.83.87-2.6,2-3.23,1.63a5.15,5.15,0,0,1-2.15-3.37,36,36,0,0,1-.2-6c-.18-8.45-2-9.78-10-7.31.67-2,1.33-4,2-6,2.33-5.58,4.93-11.06,6.88-16.78,1.28-3.73,1.49-7.82,2.41-11.69a4,4,0,0,1,2.17-2.35c.54-.21,2,.66,2.31,1.35,2.95,7.57,8.22,13.4,13.41,19.48s4.91,6.58,11.82,2Z" transform="translate(0.05 -0.03)"/><path class="cls-7" d="M607,339c2.57,3,5.2,6,7.69,9s4.51,6.11,6.94,9c2.57,3.08,2,5.37-1.85,6.64-6.91,2.3-13.86,4.49-20.65,7.1-2,.76-3.45,2.78-5.16,4.22H569c.18-4.57,4.75-4.5,7.13-6.75Q591.56,353.69,607,339Z" transform="translate(0.05 -0.03)"/><path class="cls-14" d="M37,179,0,171V149c5-4.65,10.24-7,17.52-7.9A4.1,4.1,0,0,0,18,141c5.92,10.22,11.71,20.53,17.87,30.6,1.38,2.25,4.06,3.69,6.14,5.51Z" transform="translate(0.05 -0.03)"/><path class="cls-2" d="M60,375q-1.52-11.49-3-23c11.18-5.66,22.34-11.36,33.55-17,3.06-1.53,6.28-2.75,9.42-4.11-6.78,11.63-13.65,23.21-20.29,34.92C78,368.74,77.15,372,76,375Z" transform="translate(0.05 -0.03)"/><path class="cls-15" d="M513.94,58c-3.14-5-1.3-9.81.46-14.71A54.93,54.93,0,0,0,516,36l1-5,1-3,1-3,2-8q1.5-8.51,3-17h15c-.5,14.88-7.57,28.08-10.79,42.25C526.41,50,521,54.19,515.08,58.19L513.94,58Z" transform="translate(0.05 -0.03)"/><path class="cls-16" d="M476,24l-2.05,5-17,32-5-3c-.33-1-.67-2-1-3,6.91-3.95,17-19.7,14.74-31.49-1.06-5.57-1.83-11-7.08-14-3.21-1.81-7.1-2.43-10.68-3.58l6-6h31a52,52,0,0,1-1.55,5.7C481,11.86,478.46,17.94,476,24Z" transform="translate(0.05 -0.03)"/><path class="cls-17" d="M623,375c2.6-5.43,5.36-10.66,7.22-16.58s7.87-10.06,14.21-12.19c1-.34,3.41.85,3.93,1.93,4.13,8.6,9.66,16.75,9.64,26.84Z" transform="translate(0.05 -0.03)"/><path class="cls-11" d="M524,0q-1.51,8.5-3,17c-3.49,2-4.71,4.49-2,8l-1,3-4.53-.84-.48,1L517,31l-1,5c-2,2.16-4,4.32-6.25,6.75-3.14-6-9.09-10.45-8-18.92C502.74,16,502,8,502,0Z" transform="translate(0.05 -0.03)"/><path class="cls-18" d="M607,339q-15.45,14.64-30.9,29.27c-2.38,2.25-7,2.18-7.13,6.75h-7l9-16c5.64-7.4,11.37-14.73,16.86-22.24,1.44-2,2.13-4.48,3.16-6.74l0,0h4l6,1,3,1v0c.33.67.66,1.33,1,2l2,2C607,337,607,338,607,339Z" transform="translate(0.05 -0.03)"/><path class="cls-1" d="M667,22c-7.85-1-15.69-2.19-23.56-3-3.67-.37-5.39-2-5.39-5.62C638,9,638,4.49,638,0h29Z" transform="translate(0.05 -0.03)"/><path class="cls-8" d="M315,0l-3.84,5.91L294,16.06c-7.42,2.87-13.47-1.4-19.63-4.16-1.56-.71-2.44-3.95-2.74-6.15-.24-1.82.84-3.81,1.34-5.72Z" transform="translate(0.05 -0.03)"/><path class="cls-9" d="M303.89,340.07c-3.33,6.66-6.25,13.58-10.18,19.86-1.73,2.75-5.31,4.65-8.43,6.17-6.64,3.24-13.54,6-20.33,8.93h-2c2.26-7.93,9.28-11.94,14.54-17.33,6.22-6.35,12.13-12.76,14.46-21.64l4-.07Z" transform="translate(0.05 -0.03)"/><path class="cls-6" d="M273,0c-.5,1.91-1.58,3.9-1.34,5.72.3,2.2,1.18,5.44,2.74,6.15,6.16,2.76,12.21,7,19.63,4.16,0,1,0,2-.05,2.93l-3,.07-3,1.92-16,6.07-6,1.92-3,.09-3,0c-4-9.14.88-15.79,6.1-22.5C267.47,4.71,268,2.21,269,0Z" transform="translate(0.05 -0.03)"/><path class="cls-4" d="M44.92,44c-7.68,3-15.5,5.6-23,8.94S7.26,60.31,0,64V51c17.16-3.55,34.3-7.17,51.49-10.53,1.68-.33,3.68,1,5.53,1.5-1.32,2.41-2.82,4.74-3.91,7.25A60.73,60.73,0,0,0,51,56Z" transform="translate(0.05 -0.03)"/><path class="cls-5" d="M18,141a4.1,4.1,0,0,1-.48.1C10.19,142,4.94,144.38,0,149V133c3.4.56,6.85,1.72,10.21,1.52,4.63-.29,9.2-1.6,13.8-2.48,2.47-.87,4.89-1.92,7.42-2.59,8.19-2.14,16.42-4.14,24.64-6.2Z" transform="translate(0.05 -0.03)"/><path class="cls-4" d="M207.84,355c4,4.86,8,9.68,11.85,14.61A50.86,50.86,0,0,1,223,375H194c1-2.26,1.53-4.82,3-6.74C200.34,363.7,204.17,359.41,207.84,355Z" transform="translate(0.05 -0.03)"/><path class="cls-11" d="M182,375c2.17-9.67,5-19,11.22-27.08,2.32-3,3.42-7,5.11-10.59,6.28,5.54,6.55,13.55,1.52,19.23-5.23,5.91-9.92,12.28-14.85,18.44Z" transform="translate(0.05 -0.03)"/><path class="cls-4" d="M143,375c2.92-7,8.91-11,14.87-15.07,5.16,4.6,11.79,7.83,14.13,15.07Z" transform="translate(0.05 -0.03)"/><path class="cls-11" d="M667,273c-6.91,4.59-6.61,4.1-11.82-2s-10.46-11.91-13.41-19.48c-.27-.69-1.77-1.56-2.31-1.35a4,4,0,0,0-2.17,2.35c-.92,3.87-1.13,8-2.41,11.69-2,5.72-4.55,11.2-6.88,16.78.43-2.42.73-4.87,1.31-7.25,2.18-8.93,4.45-17.83,6.69-26.75v-1l3-1h1c.67.67,1.33,1.34,2,2l2,2c.8,5.73,3.94,10.13,8,14h1c3.71,6.46,5.5,6.72,11,1.72a15.61,15.61,0,0,1,3-1.72Z" transform="translate(0.05 -0.03)"/><path class="cls-11" d="M107,0c-.52,6-6.39,7-9.88,10.11-2.85,2.55-6.71,4-10.12,5.89-.24-1.68-.48-3.35-.71-5-1.58.61-3.38.92-4.67,1.91C79.14,14.75,77,17,73.91,19.83c-.58-5.51,2.93-7.59,5-10.38C81.28,6.32,83.61,3.17,86,0H96L93.57,8.79C99,7.15,100,3.19,102,0Z" transform="translate(0.05 -0.03)"/><path class="cls-3" d="M476,24c2.49-6.1,5-12.18,7.43-18.31A52,52,0,0,0,485,0h9C490.46,9.91,486.41,19.37,476,24Z" transform="translate(0.05 -0.03)"/><path class="cls-8" d="M128,350c-2.2,4.67-4.58,9.27-6.53,14.05-1.45,3.53-2.34,7.29-3.47,10.95H108C113.21,365.58,119.28,356.77,128,350Z" transform="translate(0.05 -0.03)"/><path class="cls-3" d="M667,252c-1-3.4-2-6.78-3-10.2-1.09-4.07-2-8.17-3.08-12.24-.25-1-.8-1.82-1.08-2.76-1.68-5.78.56-7.9,7.11-6.8Z" transform="translate(0.05 -0.03)"/><path class="cls-19" d="M571,359l-9,16h-4C558.7,366.79,564.17,362.38,571,359Z" transform="translate(0.05 -0.03)"/><path class="cls-3" d="M667,263a15.61,15.61,0,0,0-3,1.72c-5.55,5-7.34,4.74-11-1.72,7.15,1,8.53.26,11.66-5.89A20.91,20.91,0,0,1,667,254Z" transform="translate(0.05 -0.03)"/><path class="cls-11" d="M317,375l15-6.33V375Z" transform="translate(0.05 -0.03)"/><path class="cls-1" d="M102,0C100,3.19,99,7.15,93.57,8.79L96,0Z" transform="translate(0.05 -0.03)"/><path class="cls-16" d="M505.86,277c-.18-2.46-1-5.07-.43-7.34,3.41-13.61,7.16-27.13,10.74-40.7a46.91,46.91,0,0,0,.76-4.89l.24-3.34-1.16-.19L514.93,224q-4.5,7.49-9,15l-2,2c0,.33,0,.67,0,1l-3,5c-.68,2-1.35,4-2,6a34.49,34.49,0,0,0-3.49,3.45c-3.62,4.71-4.39,4.75-7.49-.54C481.56,245,475.28,234,469,223c0-1.33,0-2.66-.05-4,0-.67,0-1.34,0-2,13.11-6,26.21-12,39.35-17.9a8.82,8.82,0,0,1,3.91-.49c5.21.23,9.86-1.06,13.77-4.62-1.13,4-2.3,7.95-3.38,11.94-1,3.56.34,6.1,4,6.48s8.82,2.68,10.87-2.65c4-10.35-.62-17.51-11.49-18.73l4-3,32,6c0,.67,0,1.33,0,2l-13,19Zm12.3-70.16c.45-.52.92-.84.93-1.16s-.41-.73-.64-1.1c-.32.28-.84.52-.9.85S517.86,206.17,518.16,206.81Z" transform="translate(0.05 -0.03)"/><path class="cls-19" d="M429,265c-2.38,2.27-4.91,4.41-7.08,6.87-1.27,1.45-2,3.42-2.92,5.15L407,278l-20,0c3-1.86,6-3.9,9.16-5.51s7.13-2.22,7.14-6.58c0-4.08-3.36-5.62-6.66-7.15s-6.33-3.58-9.49-5.38c-3.71-2.13-7.44-4.24-11.16-6.35l1-3,17-38c6.35.83,12.68,2,19.06,2.35,3.6.2,7.28-.88,10.93-1.38l2,6c.72,11,1.22,21.93,2.32,32.85.29,2.86,2.46,5.53,3.77,8.28-.37,3.28-.75,6.55-1.12,9.83Z" transform="translate(0.05 -0.03)"/><path class="cls-18" d="M581.93,157l-9,.06-2.89-.09-8.11-8.76c-1.82-2-3.52-4-5.47-5.85-3.08-2.87-6.33-5.57-9.51-8.34-.94-9.69-2.1-19.38-2.75-29.09-.38-5.67-2.7-9.36-8.21-10.92,3.44-7.35,6.54-8.86,13.7-5.77,6.23,2.7,12.16,6.11,18.3,9a81.76,81.76,0,0,0,7.92,2.83l2,2,22,11c-2.52,7.49-4.69,15.13-7.68,22.44S585.41,149.83,581.93,157Z" transform="translate(0.05 -0.03)"/><path class="cls-2" d="M417.06,105.88c2.07-1.18,3.46-2.13,5-2.8,6-2.68,12-5.27,18-7.9a7.52,7.52,0,0,1,1.83-.75c13.81-1.9,25.19-9.88,37.66-15.11,4.09-1.71,16.93,2,19,6a6.94,6.94,0,0,1,.2,5.2,130.88,130.88,0,0,1-7.3,15.19c-3.12,5.37-3.28,8.41.45,13.14q3.21,4.08,6.31,8.24c1.86,2.5.54,5.53-3,5.34a113.62,113.62,0,0,1-18.6-2.69,96.58,96.58,0,0,1-16-5c-5.76-2.38-11.23-5.45-16.81-8.27-1.17-.59-2.17-1.68-3.39-2-3.87-1-8-1.25-11.67-2.57S421.78,108.37,417.06,105.88Z" transform="translate(0.05 -0.03)"/><path class="cls-18" d="M425.93,213c-.65-2-1.31-4-2-6q0-15,0-30c2.41-9.06,2.6-17.88-.84-26.92-3.6-9.45-6.3-19.24-9.25-28.93-.59-1.94-.49-4.08-.71-6.13l2-.92L440,153l2,2c1.33,1.35,2.65,2.7,4,4q6.51,10,13,19.95a79.56,79.56,0,0,0,0,8.46c1.18,11.43-4.89,20.31-10.09,29.51C443.93,212.78,431.34,210.61,425.93,213Z" transform="translate(0.05 -0.03)"/><path class="cls-2" d="M570.05,157l2.89.09c4.1,5.8,8,11.71,12.32,17.37,6.47,8.56,13.25,16.88,19.69,25.46.93,1.25.69,3.39,1,5.13l-5-1c-1.75-1.28-3.33-3.07-5.29-3.73a72.19,72.19,0,0,0-10.2-2.17c-5.83-1.06-11.67-2.06-17.51-3.09h-3l-3-1-32-6c4.53-7.2,9-14.42,13.64-21.59a5.52,5.52,0,0,1,2.48-2.36C554,161.61,562.05,159.32,570.05,157Z" transform="translate(0.05 -0.03)"/><path class="cls-2" d="M429,265l1.95-1L445,259.07l3,0,3-1.05c6.35-2.14,6.86-7.46,7-13,1.29-1.6,3-3,3.8-4.85,2.57-5.64,4.82-11.42,7.19-17.15,6.33,11,12.61,22,19,32.9,3.1,5.29,3.87,5.25,7.49.54a34.49,34.49,0,0,1,3.49-3.45c-.63,5.43-1.73,10.14-9,10-1.38,0-3.19,3-4.12,5-1.77,3.68-4.31,5.06-8.34,4.65-13.31-1.36-26.66-2.35-39.94-3.91C434.59,268.38,431.82,266.31,429,265Z" transform="translate(0.05 -0.03)"/><path class="cls-4" d="M536,94c5.51,1.56,7.83,5.25,8.21,10.92.65,9.71,1.81,19.4,2.75,29.09-11.3,0-22.6.09-33.89-.08-2,0-3.89-1.11-5.84-1.71.74-1.76,1.14-3.8,2.28-5.25C518.26,115.92,527.15,105,536,94Z" transform="translate(0.05 -0.03)"/><path class="cls-9" d="M425.93,213c5.41-2.43,18-.26,23,4-4.56,10.72-9.06,21.45-13.7,32.13a37.61,37.61,0,0,1-3.17,5c-1.31-2.75-3.48-5.42-3.77-8.28C427.15,235,426.65,224,425.93,213Z" transform="translate(0.05 -0.03)"/><path class="cls-6" d="M459,179q-6.52-10-13-19.95c4.73-1.87,9.54-3.57,14.18-5.65,6.2-2.78,12.2-6,18.45-8.66,1.49-.64,3.6.16,5.43.31-.34,1.69-.16,3.8-1.11,5-3.38,4.28-7.29,8.14-10.72,12.39-3.19,4-6,8.24-9,12.28A47.75,47.75,0,0,1,459,179Z" transform="translate(0.05 -0.03)"/><path class="cls-17" d="M456.93,61l17-32,7.58-4.43c0,5.87.11,10.82,0,15.75-.12,3.77-.71,7.53-.84,11.3-.17,4.63-2.3,7.33-6.88,8.35-3.65.81-7.2,2-10.8,3Z" transform="translate(0.05 -0.03)"/><path class="cls-4" d="M423.93,177q0,15,0,30c-3.65.5-7.33,1.58-10.93,1.38-6.38-.37-12.71-1.52-19.06-2.35l0-2c8.42-7.36,16.85-14.69,25.22-22.09C420.88,180.45,422.35,178.68,423.93,177Z" transform="translate(0.05 -0.03)"/><path class="cls-20" d="M526,191.06c10.87,1.22,15.48,8.38,11.49,18.73-2.05,5.33-7,3.05-10.87,2.65s-5-2.92-4-6.48c1.08-4,2.25-8,3.38-11.94C526,193,526,192,526,191.06Z" transform="translate(0.05 -0.03)"/><path class="cls-19" d="M448,259l-3,0c-4.34-3.06-4.49-6.41-1.14-10.48,2.73-3.3,4.94-7,7.53-10.47,2.37-3.14,4.11-2.11,5.14,1.13.6,1.89,1,3.85,1.47,5.78-.18,5.5-.69,10.82-7,13Z" transform="translate(0.05 -0.03)"/><path class="cls-6" d="M515.36,65.22c-1.63,6.75-3.21,13.51-5,20.21-.1.37-3.09.6-3.29.2-.74-1.54-1.63-3.62-1.13-5,1.94-5.49,4.4-10.81,6.66-16.2Z" transform="translate(0.05 -0.03)"/><path class="cls-2" d="M597.73,81.59c-1.14,1.08-1.82,2.23-2.67,2.37-.63.1-1.47-1.12-2.21-1.75.73-.76,1.35-1.79,2.24-2.15C595.57,79.87,596.51,80.84,597.73,81.59Z" transform="translate(0.05 -0.03)"/><path class="cls-2" d="M579.54,96.07c1.12-1.15,2.23-2.3,3.35-3.44l1.26,1.31-3.85,3.47C580,97,579.79,96.52,579.54,96.07Z" transform="translate(0.05 -0.03)"/><path class="cls-2" d="M577.93,102.06l-2-2L580,97C579.28,98.71,578.6,100.38,577.93,102.06Z" transform="translate(0.05 -0.03)"/><path class="cls-6" d="M513.94,58l1.14.15c-.09.39-.17.78-.26,1.17Z" transform="translate(0.05 -0.03)"/><path class="cls-2" d="M468.91,217c0,.67,0,1.34,0,2C468.91,218.37,468.91,217.7,468.91,217Z" transform="translate(0.05 -0.03)"/><path class="cls-6" d="M441.94,155l-2-2Z" transform="translate(0.05 -0.03)"/><path class="cls-3" d="M386.93,278l20,0c-3.59,1.28-7.13,2.76-10.79,3.79-9.87,2.75-19.86,5.12-29.66,8.11-1.85.57-3,3.33-4.54,5.07l-8-1q-2,2.5-4,5l-6,2c.17-3.39-1.32-5.5-4.46-7-5.27-2.47-10.21-5.63-15.53-8-4.78-2.09-6.75-5-5.21-10.14,1.16-3.84-.64-5.85-4.46-5.79-4,.05-7.95.53-11.93.74-7.86.41-12.64-3.71-13.29-11.57-.27-3.31-.28-6.64-.38-10-.14-4.75,1.39-5.92,5.62-3.49,3.66,2.11,6.77,5.17,10.26,7.6,1.24.87,2.9,1.14,4.37,1.68a26.51,26.51,0,0,0,1.63-4.84c.16-1-.68-2.19-.86-3.32-.64-4-1.18-8-1.76-12,1,2,2.07,4,3,6,1.71,3.64,3.36,7.31,5,11v1.89a43.56,43.56,0,0,0,1,4.28c1.11,3.41,2.77,3.89,4.93.76l11-42.94c5.51,3.9,10.94,7.91,16.54,11.68,5.33,3.58,10.78,7,16.29,10.32,3.62,2.17,7.44,4,11.17,6l-1,3c-3.75,8.33-7.61,16.61-11.22,25-1.91,4.44-1,5.81,3.77,5.95C374.62,278.12,380.78,278,386.93,278Z" transform="translate(0.05 -0.03)"/><path class="cls-11" d="M291,82c3.68,5.37,6.6,11.61,14.68,11.61.9,0,2.25,2.11,2.6,3.45,1.29,4.9,2.58,9.49,8.12,11.58,1.2.46,2,3.22,2.13,5,.2,2.77-.33,5.59-.55,8.39l-3.72-4.24-.77.27,1.5,6c-2.93-1.81-4.12-6.72-9-5l0-5c2.86-6.19,1.53-8.31-5.22-9-4.59-.49-9.12-1.53-13.69-2.21-6.38-1-12.75-2-19.16-2.61-2.53-.26-5,.78-3.5,4.11,2,4.34,4.35,8.5,6.55,12.75,1.19,2.86,2.36,5.74,3.55,8.6q3.22,7.7,6.48,15.38c-5.67,1.1-11.35,2.22-17,0-.33-.66-.66-1.33-1-2q-.49-7-1-14c-.14-4.16-.19-8.31-.43-12.46-.82-14.41-2-28.8-2.45-43.21-.27-8.43.54-16.88.86-25.33l19.94,23.13L287.94,78l2,2Z" transform="translate(0.05 -0.03)"/><path class="cls-12" d="M314.94,124l-1.5-6,.77-.27,3.72,4.24,7,18c0,.69,0,1.39,0,2.08-.44,1.86-1.82,4.18-1.17,5.52,3.44,7.06,2.51,14.18,1.16,21.4l-4,11c-5.34,3.77-11,7.17-15.95,11.4-5.88,5-8.45,4.6-10.85-2.7-2-5.93-4.11-11.81-6.18-17.71q1-6,2-12c1.39-2.28,3.25-4.41,4.07-6.88,2.67-8.07,4-9.26,12.36-9.08,2.81.06,5.61.45,8.41.7,5.94.53,7.13-.78,5.26-6.28C318.5,133,316.65,128.52,314.94,124Z" transform="translate(0.05 -0.03)"/><path class="cls-20" d="M447.92,6c3.58,1.15,7.47,1.77,10.68,3.58,5.25,2.95,6,8.4,7.08,14,2.25,11.79-7.83,27.54-14.74,31.49l-2-1-5-6c0-.33,0-.66,0-1-.67-1-1.34-2-2-3L422.81,19Z" transform="translate(0.05 -0.03)"/><path class="cls-21" d="M291,82l-1-2-2-2-8.08-10.87c1.05-2,2.22-3.93,3.12-6,1.6-3.62,2-8.48,4.73-10.75,5.9-5,5.59-11,5-17.29-.63-6.07-2.5-7-8.3-4.88a40.47,40.47,0,0,0-5.62,2.07c-6.32,3.48-12.55,7.13-18.82,10.71-3.28-5.08.6-8.35,3-12l3-.08,6-1.93,16-6.07,3-1.92,3-.07a39.83,39.83,0,0,0,6.29-.25c5.08-.95,7.58.5,7.55,5.67,0,9-.6,17.93-1.08,26.89-.06,1.25-.53,3-1.42,3.59-5.66,3.63-5.35,9.53-6.11,15S296.45,79.88,291,82Z" transform="translate(0.05 -0.03)"/><path class="cls-7" d="M320.93,180l4-11c1.59-.11,3.45.27,4.7-.44,2-1.13,3.54-3,5.29-4.54,6.09,7.87,9.15,16.54,6.32,26.45-1.91,6.69-1.12,14.44-7.34,19.53a29.79,29.79,0,0,0-3.9.12c-3.67.58-7.32,1.28-11,1.93Q320,196,320.93,180Z" transform="translate(0.05 -0.03)"/><path class="cls-4" d="M324.94,142.1c0-.69,0-1.39,0-2.08,5.87,6.55,13.62,5.14,21,4.74,3.58-.2,3.91-2.87,3.39-5.9a42.18,42.18,0,0,1-1-9.31c.19-3.56,2.7-4.76,6.07-3.85,8.14,2.22,13.09,17,7.9,23.4-2.31,2.88-5.13,4.39-8.74,2.7-4.35-2-7.51-.67-10.63,2.62-2.36,2.49-5.32,4.43-8,6.61-1.21-2.11-2.48-4.19-3.6-6.34C329.15,150.52,327.06,146.3,324.94,142.1Z" transform="translate(0.05 -0.03)"/><path class="cls-9" d="M319,212.07c3.66-.65,7.31-1.35,11-1.93a29.79,29.79,0,0,1,3.9-.12l-1,6-11,42.94-5.91-5c0-.63,0-1.26,0-1.89q1.46-19.51,2.89-39Z" transform="translate(0.05 -0.03)"/><path class="cls-9" d="M324.94,142.1c2.12,4.2,4.21,8.42,6.38,12.59,1.12,2.15,2.39,4.23,3.6,6.34v3c-1.75,1.55-3.31,3.41-5.29,4.54-1.25.71-3.11.33-4.7.44,1.35-7.22,2.28-14.34-1.16-21.4C323.12,146.28,324.5,144,324.94,142.1Z" transform="translate(0.05 -0.03)"/><path class="cls-16" d="M444,48l5,6Z" transform="translate(0.05 -0.03)"/><path class="cls-11" d="M306.41,88l.09-2,.83,0c0,.67-.07,1.33-.11,2Z" transform="translate(0.05 -0.03)"/><path class="cls-16" d="M441.93,44.05c.68,1,1.35,2,2,3C443.28,46,442.61,45,441.93,44.05Z" transform="translate(0.05 -0.03)"/><path class="cls-17" d="M505.86,277l43.07-62c5.14.34,10.29.53,15.41,1.06,9.56,1,19.13,2,28.66,3.35,4.12.56,5.42,3.17,3.21,6.25-3.86,5.38-8.07,10.5-12.13,15.73S576,251.82,571.94,257l-3,4h0l-7,5-4,4-2,1-5,1.06-9.2,1.17L539.92,275q-13.41,2.25-26.82,4.48C510.26,280,507.38,280.35,505.86,277Z" transform="translate(0.05 -0.03)"/><path class="cls-13" d="M362,295c1.5-1.74,2.69-4.5,4.54-5.07,9.8-3,19.79-5.36,29.66-8.11,3.66-1,7.2-2.51,10.79-3.79l12-.95v2c.28,7.55.68,15.11.8,22.67.05,3.36-1.9,5.32-5.23,6.27-2.3.66-4.39,2-6.58,3.07l-4-1-6-3c-3.17-.89-6.36-1.7-9.49-2.69-7.52-2.39-15-4.87-22.51-7.31Z" transform="translate(0.05 -0.03)"/><path class="cls-6" d="M365.93,297.05c7.5,2.44,15,4.92,22.51,7.31,3.13,1,6.32,1.8,9.49,2.69l6,3,4,1,11,4,6,6-35.06,14c-3.4-4.2-7.08-8.21-7.61-14-.07-.79-1.33-1.42-1.88-2.23Q373.14,307.91,365.93,297.05Z" transform="translate(0.05 -0.03)"/><path class="cls-10" d="M539.92,275l1.83-1.78,3,2.89c1.91,1.61,3.79,3.25,5.72,4.83Q567.73,295,585,309c-3,3.23-6.59,6.07-8.76,9.76-2.93,5-6.54,7.62-12.29,7.26q-9.17-19.68-18.35-39.34C543.74,282.79,541.81,278.92,539.92,275Z" transform="translate(0.05 -0.03)"/><path class="cls-5" d="M418.94,315l-11-4c2.19-1.05,4.28-2.41,6.58-3.07,3.33-1,5.28-2.91,5.23-6.27-.12-7.56-.52-15.12-.8-22.67,1.73,1.25,3.72,2.27,5.14,3.81,5.83,6.34,11.4,12.92,17.22,19.26,3.92,4.27,3.88,7.5-.53,11.36-.75.65-1.48,1.34-2.16,2.06-4.23,4.55-8.12,4.74-12.78.32C423.61,313.72,421.55,312.69,418.94,315Z" transform="translate(0.05 -0.03)"/><path class="cls-17" d="M475.14,299.6c6.35,5.76,6.35,6.27.71,12-2,2-3.84,4.14-5.87,6.1-2.41,2.32-4.47,1.84-4.75-1.51-.65-7.61-1.71-15.42,6.91-20.11,1.76-1,2.68-3.56,3.86-5.49,2.23-3.66,4.12-7.56,6.68-10.95,1-1.28,3.44-2,5.18-1.95a25.33,25.33,0,0,1,8.69,1.91c2,.86,4.88,3,4.82,4.39a8.34,8.34,0,0,1-3.94,6c-6.19,3.11-12.76,5.48-19.18,8.15C477.37,298.55,476.51,299,475.14,299.6Z" transform="translate(0.05 -0.03)"/><path class="cls-20" d="M563.92,326.05c5.75.36,9.36-2.29,12.29-7.26,2.17-3.69,5.79-6.53,8.76-9.76,5.39,4.45,12.72,7.77,10,17h0l-4,4,0,0c-5.1-.36-10.24-.45-15.29-1.15C571.71,328.35,567.84,327,563.92,326.05Z" transform="translate(0.05 -0.03)"/><path class="cls-1" d="M514.93,224l1.08-3.52,1.16.19-.24,3.34Z" transform="translate(0.05 -0.03)"/><path class="cls-2" d="M501,247l3-5Z" transform="translate(0.05 -0.03)"/><path class="cls-2" d="M504,241l2-2Z" transform="translate(0.05 -0.03)"/><path class="cls-21" d="M18,141,56,123.28,70.87,120l3.06.07c1.44,1,2.74,2.46,4.34,3,5,1.76,10.13,3.26,15.25,4.71a27.51,27.51,0,0,0,5.38.69c6.94.51,13.94.5,20.79,1.55,8.73,1.33,9.28,1.16,11.09-7.65,1.54-7.48,3.43-14.89,5.16-22.33,2.13-.29,4.24-.71,6.37-.85,5.87-.37,7.08.77,7.64,6.85-1.55,2.5-2.95,5.11-4.66,7.49-5,6.9-12.87,12.48-8.87,23.09.58,1.53-1.82,5.6-3.71,6.39-7.13,3-14.65,4.93-22,7.47-7.72,2.69-15.41,5.49-23,8.48-2.42,1-4.53,2.68-6.79,4.05-3.43,1.15-6.89,2.2-10.28,3.45C61.08,170,51.53,173.57,42,177.14c-2.08-1.82-4.76-3.26-6.14-5.51C29.66,161.56,23.87,151.25,18,141Z" transform="translate(0.05 -0.03)"/><path class="cls-2" d="M135.94,100c-1.73,7.44-3.62,14.85-5.16,22.33-1.81,8.81-2.36,9-11.09,7.65-6.85-1-13.85-1-20.79-1.55a27.51,27.51,0,0,1-5.38-.69c-5.12-1.45-10.23-3-15.25-4.71-1.6-.56-2.9-2-4.34-3,5.48,1.35,11,2.68,16.43,4,7.4,1.85,8.79.87,9.72-6.49.24-1.9,1.23-3.71,1.87-5.57q1-6.5,2-13V77c4.18-4.16,3.21-9.06,2-14V58c9.16-2.37,18.25-4.86,26.44,2.88,1.16,1.09,3.84,1.16,5.65.83,2.71-.5,5.28-1.77,7.91-2.71l-1,4-2,5-4,15Q137.45,91.54,135.94,100Z" transform="translate(0.05 -0.03)"/><path class="cls-9" d="M70.87,120,56,123.28c-8.22,2.06-16.45,4.06-24.64,6.2-2.53.67-4.95,1.72-7.42,2.59-.61-2.73-.82-5.24,2.23-6.89,14.25-7.69,19.39-20.62,19.59-35.8.17-12.63-.65-25.27-1-37.9-.07-2.49.08-5,.13-7.48l6,12c2,5.35,3.86,10.77,6.07,16,1.32,3.13,3.2,6,4.82,9,2.77,8.67,5.31,17.43,8.4,26C71.85,111.44,73.13,115.54,70.87,120Z" transform="translate(0.05 -0.03)"/><path class="cls-14" d="M135.94,100q1.51-8.5,3-17c5.19-4,5.56-9.23,4-15,.66-1.67,1.33-3.33,2-5l4-5c3.35-4.49,6.64-9,10.05-13.45,4.52-5.89,11.57-7.13,18-9.56-1,2.7-1.47,5.67-2.95,8-3.79,6.12-8,12-12.06,18-6.94.27-8,6.57-11,10.88-.33.49.72,2.75,1.57,3.09,5.29,2.11,6.69,6.91,8.79,11.43.87,1.84,3.05,3.08,4.63,4.59v0c0,.66,0,1.32,0,2-4-.25-6.78,1.34-9,4.85-1.9,3-4.65,5.46-7,8.16-.56-6.08-1.77-7.22-7.64-6.85C140.18,99.32,138.07,99.74,135.94,100Z" transform="translate(0.05 -0.03)"/><path class="cls-5" d="M146,59c-2.63.94-5.2,2.21-7.91,2.71-1.81.33-4.49.26-5.65-.83C124.2,53.17,115.11,55.66,106,58a67.84,67.84,0,0,0,3.54-7.54c1.08-3.21,1.5-6.62,2.52-9.85.79-2.49,1.42-5.83,3.26-7,3-1.89,6.59-1.68,9.3,1.8,2.33,3,4.54,2,6.19-1,2.06-3.68,4.11-3.42,6.21,0,.26.42.47,1,.85,1.21,7,2.84,6.33,8.23,5.45,14.3C142.9,52.45,145,55.33,146,58Z" transform="translate(0.05 -0.03)"/><path class="cls-7" d="M219,50l2.95,2-3,11.91c-2.57,1.13-5.19,2.15-7.69,3.42-8.1,4.11-16.16,8.32-24.23,12.5C185.2,71.42,188.46,63.79,191,56c6.23-.6,12.52-.84,18.65-2C212.86,53.49,215.85,51.42,219,50Z" transform="translate(0.05 -0.03)"/><path class="cls-21" d="M187,79.89c8.07-4.18,16.13-8.39,24.23-12.5,2.5-1.27,5.12-2.29,7.69-3.42l0,5c-2.39,3.75-5.07,7.36-7.1,11.29C208.35,87.09,205.23,94.1,202,101c-5.46-.43-6.83-5-9.07-8.8s-4.64-7.5-7-11.24Z" transform="translate(0.05 -0.03)"/><path class="cls-20" d="M185.92,81c2.32,3.74,4.71,7.45,7,11.24s3.61,8.37,9.07,8.8l-5,10L195,111,172,97,168,96,166,93c0-.66,0-1.32,0-2l5-3Z" transform="translate(0.05 -0.03)"/><path class="cls-2" d="M171,88.05l-5,3v0c-1.38-3.53-3.73-7-3.92-10.58-.33-6.44-5.86-13-.09-19.41,4.05-6,8.27-11.84,12.06-18,1.48-2.38,2-5.35,2.95-8,1.64-.63,4.35-2.19,4.75-1.73,1.94,2.23,3.89,4.83,4.66,7.63.91,3.35.5,7,.91,10.55.34,2.78-.7,4.11-3.43,4.27-4.47.27-7.08-2.08-8.23-7.42-.32,0-.82-.25-.94-.12-3.15,3.7-6.86,7.11-9.18,11.28-1.43,2.57-1.59,6.52-.85,9.48C166.25,75.45,168.8,81.7,171,88.05Zm9.85-44.13c0-.15.12-.33.07-.44s-.26-.14-.4-.2l-.11.73Z" transform="translate(0.05 -0.03)"/><path class="cls-17" d="M61.86,81.07c-1.62-3-3.5-5.9-4.82-9C54.83,66.77,53,61.35,51,56a60.73,60.73,0,0,1,2.09-6.75C54.15,46.74,55.65,44.41,57,42v0q1.47,7,3,14Q60.9,68.56,61.86,81.07Z" transform="translate(0.05 -0.03)"/><path class="cls-8" d="M194.94,14c2.45,3.12,5.12,6.09,7.26,9.42.82,1.28,1.18,4.16.41,4.88a7,7,0,0,1-5.38,1.32,5.87,5.87,0,0,1-3.77-3.22c-.72-1.93-.41-4.25-.54-6.4Q193.93,17,194.94,14Z" transform="translate(0.05 -0.03)"/><path class="cls-4" d="M59.92,56.05q-1.48-7-3-14C61.68,45.92,59.36,51.29,59.92,56.05Z" transform="translate(0.05 -0.03)"/><path class="cls-5" d="M106,63c1.21,4.94,2.18,9.84-2,14Q105,70,106,63Z" transform="translate(0.05 -0.03)"/><path class="cls-5" d="M104,99q-1,6.51-2,13Q103,105.54,104,99Z" transform="translate(0.05 -0.03)"/><path class="cls-22" d="M146,59V58h1l.5,0,.49,0h1l-4,5C145.28,61.7,145.62,60.37,146,59Z" transform="translate(0.05 -0.03)"/><path class="cls-11" d="M87,17c-.67.67-1.34,1.33-2,2C85.61,18.36,86.28,17.7,87,17Z" transform="translate(0.05 -0.03)"/><path class="cls-5" d="M147.94,58l-.49,0-.5,0Z" transform="translate(0.05 -0.03)"/><path class="cls-13" d="M172.94,213c-5.33,7.2-10.69,14.37-16,21.6-6.28,8.58-13.09,16.85-18.61,25.9-7.41,12.14-13.9,24.84-20.61,37.39-4.62,8.64-8.9,17.47-13.48,26.14-.65,1.23-2.11,2-3.19,3L66.68,303.28,36,282c.6-3.69.19-8,2-10.95,3.39-5.39,8.11-9.94,12.24-14.88a92.31,92.31,0,0,0,5.88-7.38c3.71-5.5.31-10.1-2.18-14.76,0-.33,0-.66,0-1,6.93.12,13.87.33,20.81.27a6.55,6.55,0,0,0,4.42-1.58c4.1-4.52,8.29-9.09,9-15.62l3.78-.08-4.64,13.65c2.72-.87,4.24-1.26,5.69-1.83,17.91-7.07,35.85-14.08,53.7-21.31,7.21-2.92,14.22-6.32,21.32-9.5l9,6-1,5Z" transform="translate(0.05 -0.03)"/><path class="cls-23" d="M229.93,307.91c-.33,0-.66.07-1,.12-7.22-3.9-14.47-7.74-21.66-11.71-7.76-4.28-15.23-9.18-23.29-12.78-3.41-1.53-8-.42-12-.52,3.16-6.35,6.09-12.83,9.54-19,6-10.74,12.29-21.31,18.46-32L209.88,213l2.12,0q1.49,6.51,3,13c1.3,7.15,2.66,14.29,3.88,21.46,1.44,8.45,2.76,16.93,4.14,25.4L225,285c.69,3.33,1.35,6.67,2.07,10C228,299.32,229,303.61,229.93,307.91Z" transform="translate(0.05 -0.03)"/><path class="cls-20" d="M36,282l30.71,21.29,34.38,23.79c-.39,1.3-.77,2.61-1.15,3.92-3.14,1.36-6.36,2.58-9.42,4.11-11.21,5.6-22.37,11.3-33.55,17q-9.52-28.5-19.06-57-2-6.51-3.92-13Z" transform="translate(0.05 -0.03)"/><path class="cls-18" d="M209.88,213,200,232c-1.3-1.61-3.21-3-3.78-4.86-1.61-5.22-3.27-10.54-3.82-15.94-1-9.28-6.2-16.17-11.42-23.2h0l0-36c.52-3.51-1.4-7.76,3.07-10.07l0,0a37.06,37.06,0,0,1,1.92,3.49c6.46,15.64,13.22,31.16,19.16,47C207.51,199,211.69,205.37,209.88,213Z" transform="translate(0.05 -0.03)"/><path class="cls-1" d="M184,142c-4.47,2.31-2.55,6.56-3.07,10.07-.64,2.14-1.73,4.26-1.85,6.44-.46,7.89-.78,15.79-.71,23.69,0,2,1.69,3.91,2.6,5.87h0c-.13,4.2.28,8.51-.57,12.56-.63,3-2.89,5.63-4.42,8.43,0-.33,0-.67,0-1l1-5c-.42-1.46-.41-3.75-1.34-4.23-4.12-2.15-5-5.63-4.63-9.65,1.11-12.31,2.14-24.63,3.65-36.9.65-5.34,3.15-10.14,7.23-15.37C182.89,139.37,183.43,140.67,184,142Z" transform="translate(0.05 -0.03)"/><path class="cls-5" d="M175.94,208c0,.33,0,.67,0,1q-1.5,2-3,4Z" transform="translate(0.05 -0.03)"/><path class="cls-1" d="M622.94,62l3-2c5-.15,10-.17,14.93-.51s16.44,7.09,17.41,11.85c.21,1-1.54,3.29-2.78,3.65a61.5,61.5,0,0,1-9.81,1.55c-7.22.87-14.44,2.19-21.68,2.34-6.46.13-7.72-3-4.57-8.71A83.1,83.1,0,0,0,622.94,62Z" transform="translate(0.05 -0.03)"/><path class="cls-3" d="M636,247c-2.24,8.92-4.51,17.82-6.69,26.75-.58,2.38-.88,4.83-1.31,7.25-.67,2-1.33,4-2,6,0,.66,0,1.33,0,2-1,2.33-2,4.67-3,7,0,1,0,2,0,3-1,2.34-2,4.67-3,7v7c-2.34,1.27-4.66,2.59-7,3.8-8.37,4.27-8.38,4.25-6,13.21l-3,2v0l-3-1-6-1c0-1.33,0-2.66,0-4h0c2.08-.7,5.77-1.15,5.93-2.16a10.93,10.93,0,0,0-1.82-7.2c-2.32-3.36-5.43-6.17-8.21-9.22l1.23-.28c-.09-1.51.42-3.62-.38-4.43-2.65-2.68-6-4.68-8.67-7.33-5.61-5.54-13.91-8.28-17.07-16.36l1.86-4.7a46.64,46.64,0,0,1,4.22,3.09c2.93,2.68,5.49,5.84,8.67,8.15,5.31,3.86,11.22,6.9,16.41,10.9,3.74,2.88,6.63,6.84,10.09,10.13,1.19,1.13,2.95,1.66,4.45,2.47.52-1.44,1.36-2.85,1.49-4.32.19-2.3-.21-4.65-.17-7,.16-9.64.5-19.29.5-28.93,0-1.69-1.36-3.38-2.08-5.07-1.54.71-3.43,1.07-4.55,2.2-4.43,4.44-8.07,9.89-13.08,13.43-3.22,2.28-8.37,2.54-12.58,2.33-1.6-.08-3.08-4-4.45-6.25-1.68-2.77-3.2-5.63-4.78-8.46l2-1,8-3c5.15-1.12,10.36-2,15.46-3.39,8.73-2.31,17.45-4.7,26.07-7.4C627.76,250.9,631.8,248.79,636,247ZM595.08,309.6a94.48,94.48,0,0,0,7.66,5.69c.29.18,2.6-1.62,2.62-2.52C605.42,309,601.77,307.5,595.08,309.6Z" transform="translate(0.05 -0.03)"/><path class="cls-11" d="M607,330c-2.41-9-2.4-8.94,6-13.21,2.37-1.21,4.69-2.53,7-3.8C621.2,323,615.83,327.84,607,330Z" transform="translate(0.05 -0.03)"/><path class="cls-11" d="M623,296c1-2.33,2-4.67,3-7Z" transform="translate(0.05 -0.03)"/><path class="cls-11" d="M620,306c1-2.34,2-4.67,3-7C622,301.37,621,303.7,620,306Z" transform="translate(0.05 -0.03)"/><path class="cls-7" d="M607,336l-2-2Z" transform="translate(0.05 -0.03)"/><path class="cls-5" d="M229.93,307.91c-1-4.3-2-8.59-2.9-12.89-.72-3.33-1.38-6.67-2.07-10l6-3q7-6.48,14-12.94c2.22,2.44,4.38,4.93,6.68,7.3a7.87,7.87,0,0,0,10,1.58c3.58-1.87,3.67-5.33,2.57-8.67-.75-2.31-2.22-4.38-3.22-6.63-1.11-2.5-2-5.08-3.05-7.62.95-1.15,1.9-2.31,2.86-3.46L276.94,232l12.13-10.35c-.86-2.53-2.12-5.83-3.11-9.21-.94-3.17-1.06-6.69-2.53-9.56-1.79-3.48-4.87-6.28-6.92-9.66-1.9-3.13-4.79-6.62-1.19-10.32,4-4.13,8.41-8,12.63-11.91,2.07,5.9,4.22,11.78,6.18,17.71,2.4,7.3,5,7.72,10.85,2.7,4.95-4.23,10.61-7.63,15.95-11.4q-1,16-1.91,32l-.12.93L305,213c-3.7,3.55-3.7,6.07,0,11l1,3,2,5c0,1,0,2,0,3,.58,4,1.12,8,1.76,12,.18,1.13,1,2.28.86,3.32a26.51,26.51,0,0,1-1.63,4.84c-1.47-.54-3.13-.81-4.37-1.68-3.49-2.43-6.6-5.49-10.26-7.6-4.23-2.43-5.76-1.26-5.62,3.49.1,3.33.11,6.66.38,10,.65,7.86,5.43,12,13.29,11.57,4-.21,7.95-.69,11.93-.74,3.82-.06,5.62,1.95,4.46,5.79-1.54,5.15.43,8.05,5.21,10.14,5.32,2.33,10.26,5.49,15.53,8,3.14,1.48,4.63,3.59,4.46,7a41.26,41.26,0,0,1-3.36,4.74c-5.16,5.47-10.43,10.83-15.67,16.24l-2,0a34.26,34.26,0,0,0-5.52-2c-9.29-1.67-10.53-.63-11.44,8.81-.2,2-.76,3.92-1.2,6.09-3.6-.84-7.11-5.16-8.84,1l-4,.07c-1.57-1.18-3-2.74-4.73-3.5C268.15,324.27,249,316.11,229.93,307.91Zm53.84-36.16c-3.3.34-6.65.43-9.88,1.09-2.78.57-3.84,2.41-2.32,5.23q7.55,13.9,15,27.85c2.49,4.66,4.78,9.42,7.43,14,1,1.77,2.77,3.13,4.19,4.67,1.5-1.41,3.87-2.59,4.32-4.28,1-3.89,2.11-8.2,1.42-12-1.54-8.62-4.06-17.07-6.31-25.55C294.78,272,294.73,272,283.77,271.75Z" transform="translate(0.05 -0.03)"/><path class="cls-15" d="M88.14,216.11c-.67,6.52-4.86,11.09-9,15.61a6.55,6.55,0,0,1-4.42,1.58c-6.94.06-13.88-.15-20.81-.27l-2-2-2-1c-1-.62-1.93-1.28-2.93-1.86-2.56-1.5-2.68-3.21-.38-5,4.27-3.36,8.61-6.64,12.88-10,1.29-1,3.05-2,3.58-3.34C66.93,200,74.25,191.38,73.94,180l5-7h5l.89,1.05Q86.5,195.1,88.14,216.11Z" transform="translate(0.05 -0.03)"/><path class="cls-4" d="M78.94,173l-5,7c-4,1-8.18,1.62-12,3.12-9.27,3.63-17.51,2.4-25-4.15l5-1.86c9.57-3.57,19.12-7.17,28.7-10.69,3.39-1.25,6.85-2.3,10.28-3.45l2,.07Z" transform="translate(0.05 -0.03)"/><path class="cls-4" d="M49.94,230.05l2,1c0,1,0,1.92.07,2.89-9.95,1.26-19.86,3.24-29.8-.43-2.88-1.06-6.16-1-9.26-1.49-.35-1-.71-1.92-1.07-2.88Z" transform="translate(0.05 -0.03)"/><path class="cls-2" d="M582,263l-8,3-3,1h-2v-6h0l4-4,3-1c8-4.83,16.73-8.55,23.5-15.52,3.43-3.54,8.29-5.7,12.5-8.48l8-6,3.19-3.68L621,221l-13-1,1-7h0c5.23-6.32,11.66-4.28,18.26-3,8.4,1.66,16.9,3,25.42,3.83,2.71.27,5.62-1.38,9.32-2.38-4.8,13.15-15.83,22.09-23,33.53l-3,1c-16.61,4.58-33.23,9.1-49.79,13.82C584.58,260.3,583.34,261.94,582,263Z" transform="translate(0.05 -0.03)"/><path class="cls-4" d="M576,256l-3,1-1,0q6.07-7.81,12.14-15.62c4.06-5.23,8.27-10.35,12.13-15.73,2.21-3.08.91-5.69-3.21-6.25-9.53-1.3-19.1-2.36-28.66-3.35-5.12-.53-10.27-.72-15.41-1.06l13-19,3-1h3c8.29,3.49,16.39,7.53,25.63,8.06,2.47.14,4.92.61,7.37.93l5,1,3,1v5c0,.67,0,1.33,0,2h0l-4,3c-3.23,4.94-6,10-4.53,16.26a3.59,3.59,0,0,1-.69,3c-4.38,3.43-9.13,6.4-13.34,10C582.62,248.57,579.41,252.44,576,256Z" transform="translate(0.05 -0.03)"/><path class="cls-3" d="M652,263c-4.06-3.87-7.2-8.27-8-14C650.39,251.54,652,256.8,652,263Z" transform="translate(0.05 -0.03)"/><path class="cls-3" d="M609,211v-5C612.56,207.7,610.74,209.36,609,211Z" transform="translate(0.05 -0.03)"/><path class="cls-3" d="M642,247c-.67-.66-1.33-1.33-2-2C640.62,245.7,641.28,246.37,642,247Z" transform="translate(0.05 -0.03)"/><path class="cls-18" d="M365.93,297.05q7.23,10.84,14.47,21.68c.55.81,1.81,1.44,1.88,2.23.53,5.81,4.21,9.82,7.61,14l-1.94.07-2,2-2.08,3.87-1.92.14c-1.92-.55-3.84-1.08-5.75-1.64L350.94,332c0-1.33,0-2.66,0-4l1-8c0-.66,0-1.33,0-2q.49-5.5,1-11a45.33,45.33,0,0,0,1.07-5.58c.16-2.46,0-4.94-.08-7.42l8,1Z" transform="translate(0.05 -0.03)"/><path class="cls-6" d="M385.93,337l2-2Z" transform="translate(0.05 -0.03)"/><path class="cls-5" d="M217,27c.55,2,1.61,4.1,1.49,6.1-.08,1.36-1.8,2.63-2.78,3.93-1.07-1.06-2.64-2-3.1-3.23-.64-1.78-.45-3.86-.61-5.81Z" transform="translate(0.05 -0.03)"/><path class="cls-2" d="M219,69l0-5,3-11.91c1-5,2.42-10,3-15,.72-6.43,2.42-8.5,8.9-8.91a41.66,41.66,0,0,1,4.47,0L260,29l3,0c-2.44,3.63-6.32,6.9-3,12v3c-.32,8.45-1.13,16.9-.86,25.33.46,14.41,1.63,28.8,2.45,43.21.24,4.15.29,8.3.43,12.46-4.46.89-8.9,1.84-13.38,2.63a5.94,5.94,0,0,1-3.17-.42c-.32-.13-.44-1.63-.12-2.21,2.86-5.25,6-10.34,8.7-15.67a14.59,14.59,0,0,0,1.54-7.09c-.26-4.4-1.95-5-6.08-3.54-2.6.89-5.51.88-8.27,1.29l-13.22,2Z" transform="translate(0.05 -0.03)"/><path class="cls-7" d="M350.93,328c0,1.33,0,2.66,0,4-.19,3.11-1.26,6.51-.35,9.25,1.4,4.16,4.17,7.86,6.36,11.76l-13,4c-1.8,1-3.57,2.1-5.39,3.07-4,2.15-7.93,4.72-12.2,6.22-3.49,1.23-6.48-2.18-7.35-6.87-.63-3.37-1-7-2.73-9.88-1.8-3.05-5-5.3-7.55-7.88-.92-.92-1.88-1.79-2.82-2.69,1.43-1.57,2.78-3.21,4.29-4.69,4.21-4.13,8.49-8.2,12.73-12.29l2,0c2.16.75,4.33,1.46,6.47,2.25C337.71,326.58,343.87,329.62,350.93,328Z" transform="translate(0.05 -0.03)"/><path class="cls-4" d="M323,322.05c-4.24,4.09-8.52,8.16-12.73,12.29-1.51,1.48-2.86,3.12-4.29,4.69l-2,1L296,336c1.73-6.16,5.24-1.84,8.84-1,.44-2.17,1-4.11,1.2-6.09.91-9.44,2.15-10.48,11.44-8.81A34.26,34.26,0,0,1,323,322.05Z" transform="translate(0.05 -0.03)"/><path class="cls-14" d="M13,232c3.1.47,6.38.43,9.26,1.49,9.94,3.67,19.85,1.69,29.79.43l1.93.09c2.49,4.66,5.89,9.26,2.18,14.76a92.31,92.31,0,0,1-5.88,7.38C46.1,261.1,41.38,265.65,38,271,36.16,274,36.57,278.3,36,282L34,282c-2.48-6.82-4.91-13.67-7.47-20.47a9.9,9.9,0,0,0-8-6.64c-1.49-.28-3.39-1.18-4.08-2.39-2.35-4.12-4.24-8.5-6.31-12.79l1.64.23Zm4.71,17.83c.29-.61.74-1.17.62-1.37-.25-.41-.82-.62-1.25-.91-.14.43-.46.88-.38,1.27S17.21,249.41,17.66,249.84Z" transform="translate(0.05 -0.03)"/><path class="cls-9" d="M357,353c-2.19-3.9-5-7.6-6.36-11.76-.91-2.74.16-6.14.35-9.25l25.24,7.38c1.91.56,3.83,1.09,5.75,1.64-2.9,8.25-5.81,10.26-14.47,10.08-1.48,0-3,0-4.45,0l-3.1,1.81Z" transform="translate(0.05 -0.03)"/><path class="cls-7" d="M359.91,353l3.1-1.81Z" transform="translate(0.05 -0.03)"/><path class="cls-6" d="M519,25c-2.73-3.51-1.51-6,2-8Z" transform="translate(0.05 -0.03)"/><path class="cls-6" d="M517,31l-4-2.82.48-1L518,28Z" transform="translate(0.05 -0.03)"/><path class="cls-5" d="M594.94,326c0,1.33,0,2.66,0,4h-4Z" transform="translate(0.05 -0.03)"/><path class="cls-11" d="M601,331l3,1Z" transform="translate(0.05 -0.03)"/><path class="cls-2" d="M272,27.05l-6,1.93Z" transform="translate(0.05 -0.03)"/><path class="cls-2" d="M291,19.06l-3,1.92Z" transform="translate(0.05 -0.03)"/><path class="cls-1" d="M582,263c1.39-1.09,2.63-2.73,4.21-3.18,16.56-4.72,33.18-9.24,49.79-13.82v1c-4.15,1.76-8.19,3.87-12.47,5.21-8.62,2.7-17.34,5.09-26.07,7.4C592.31,261,587.1,261.91,582,263Z" transform="translate(0.05 -0.03)"/><path class="cls-1" d="M518.16,206.81c-.3-.64-.68-1.07-.61-1.41s.58-.57.9-.85c.23.37.65.74.64,1.1S518.61,206.29,518.16,206.81Z" transform="translate(0.05 -0.03)"/><path class="cls-1" d="M565,195l-3,1c0-.67,0-1.33,0-2Z" transform="translate(0.05 -0.03)"/><path class="cls-18" d="M386.93,278c-6.15,0-12.31.14-18.46,0-4.78-.14-5.68-1.51-3.77-5.95,3.61-8.38,7.47-16.66,11.22-25,3.72,2.11,7.45,4.22,11.16,6.35,3.16,1.8,6.2,3.85,9.49,5.38s6.67,3.07,6.66,7.15c0,4.36-4.07,5-7.14,6.58S390,276.12,386.93,278Z" transform="translate(0.05 -0.03)"/><path class="cls-1" d="M601,204c-2.45-.32-4.9-.79-7.37-.93-9.24-.53-17.34-4.57-25.63-8.06,5.84,1,11.68,2,17.51,3.09a72.19,72.19,0,0,1,10.2,2.17C597.62,201,599.2,202.74,601,204Z" transform="translate(0.05 -0.03)"/><path class="cls-1" d="M448,259l3-1.05Z" transform="translate(0.05 -0.03)"/><path class="cls-12" d="M350.93,328c-7.06,1.6-13.22-1.44-19.53-3.75-2.14-.79-4.31-1.5-6.47-2.25,5.24-5.41,10.51-10.77,15.67-16.24A41.26,41.26,0,0,0,344,301l6-2q1.53,4,3,8-.51,5.5-1,11c0,.67,0,1.34,0,2Z" transform="translate(0.05 -0.03)"/><path class="cls-12" d="M308,235c0-1,0-2,0-3l-2-5-1-3c0-3.67,0-7.33,0-11l13.94,0q-1.44,19.51-2.89,39c-1.67-3.66-3.32-7.33-5-11C310,239,309,237,308,235Z" transform="translate(0.05 -0.03)"/><path class="cls-7" d="M353,307q-1.51-4-3-8,2-2.49,4-5c0,2.48.24,5,.08,7.42A45.33,45.33,0,0,1,353,307Z" transform="translate(0.05 -0.03)"/><path class="cls-12" d="M316,253.93l5.91,5c-2.16,3.13-3.82,2.65-4.93-.76A43.56,43.56,0,0,1,316,253.93Z" transform="translate(0.05 -0.03)"/><path class="cls-17" d="M288,171c-4.22,4-8.59,7.78-12.63,11.91-3.6,3.7-.71,7.19,1.19,10.32,2.05,3.38,5.13,6.18,6.92,9.66,1.47,2.87,1.59,6.39,2.53,9.56,1,3.38,2.25,6.68,3.11,9.21L276.94,232c-5.74-4.9-11.18-10.22-17.31-14.57-4.41-3.14-9.74-5-14.67-7.42l4.95-6c1.55-.34,3.51-.21,4.57-1.12,4.25-3.64,8.37-7.46,12.26-11.49,4.48-4.64,4.44-6.21.68-11.6-1.79-2.57-3.7-5.06-5.46-7.65-2-3-3.84-2.7-5.54.26-.49.86-1,1.74-1.43,2.61-4.68-9.31-9.42-18.59-13.92-28-.46-1,.55-2.64.87-4l1,1,5,7,2.05,4,3,4h0l3,4h3l3-19,2-3c5.67,2.22,11.35,1.1,17,0l1,1,8,17Q288.94,165,288,171Z" transform="translate(0.05 -0.03)"/><path class="cls-23" d="M227.94,102l13.22-2c2.76-.41,5.67-.4,8.27-1.29,4.13-1.42,5.82-.86,6.08,3.54a14.59,14.59,0,0,1-1.54,7.09c-2.68,5.33-5.84,10.42-8.7,15.67-.32.58-.2,2.08.12,2.21a5.94,5.94,0,0,0,3.17.42c4.48-.79,8.92-1.74,13.38-2.63q.49,7,1,14l-3,0-4,0-6-1h-8l-36,1a55.72,55.72,0,0,0-7.09-2.29c-5.37-1-11.44,1.17-15.92-3.69L195,111l1.89.08a33.06,33.06,0,0,0,4.41,4c10.28,6.46,20.63,12.8,31,19.12.89.54,2.07.62,4.33,1.24C233.59,123.68,230.77,112.85,227.94,102Z" transform="translate(0.05 -0.03)"/><path class="cls-22" d="M282,142l-1-1q-3.24-7.7-6.48-15.38c-1.19-2.86-2.36-5.74-3.55-8.6,3.31-1.65,6.59-4.63,9.92-4.69,8.36-.14,16.73,1,25.1,1.68,0,1.67,0,3.34,0,5-1.41,1.66-3.42,3.1-4.1,5-1.1,3.09-1.3,6.5-1.92,9.77-1.78,9.23-6.49,12.13-15.16,9.33C283.8,142.84,282.9,142.4,282,142Z" transform="translate(0.05 -0.03)"/><path class="cls-10" d="M259.92,44V41c6.27-3.58,12.5-7.23,18.82-10.71a40.47,40.47,0,0,1,5.62-2.07c5.8-2.15,7.67-1.19,8.3,4.88.64,6.31.95,12.3-5,17.29C285,52.7,284.58,57.56,283,61.18c-.9,2.06-2.07,4-3.12,6Z" transform="translate(0.05 -0.03)"/><path class="cls-5" d="M282,142c.93.38,1.83.82,2.78,1.12,8.67,2.8,13.38-.1,15.16-9.33.62-3.27.82-6.68,1.92-9.77.68-1.91,2.69-3.35,4.1-5,4.89-1.71,6.08,3.2,9,5,1.71,4.48,3.56,8.91,5.11,13.45,1.87,5.5.68,6.81-5.26,6.28-2.8-.25-5.6-.64-8.41-.7-8.37-.18-9.69,1-12.36,9.08-.82,2.47-2.68,4.6-4.07,6.88Z" transform="translate(0.05 -0.03)"/><path class="cls-2" d="M306,114c-8.37-.65-16.74-1.82-25.1-1.68-3.33.06-6.61,3-9.92,4.69-2.2-4.25-4.57-8.41-6.55-12.75-1.51-3.33,1-4.37,3.5-4.11,6.41.66,12.78,1.66,19.16,2.61,4.57.68,9.1,1.72,13.69,2.21C307.48,105.72,308.81,107.84,306,114Z" transform="translate(0.05 -0.03)"/><path class="cls-1" d="M260,139.05l3,0,1,2-2,3Z" transform="translate(0.05 -0.03)"/><path class="cls-2" d="M287.94,78l2,2Z" transform="translate(0.05 -0.03)"/><path class="cls-11" d="M569,267h3c1.58,2.83,3.1,5.69,4.78,8.46,1.37,2.26,2.85,6.17,4.45,6.25,4.21.21,9.36-.05,12.58-2.33,5-3.54,8.65-9,13.08-13.43,1.12-1.13,3-1.49,4.55-2.2.72,1.69,2.08,3.38,2.08,5.07,0,9.64-.34,19.29-.5,28.93,0,2.33.36,4.68.17,7-.13,1.47-1,2.88-1.49,4.32-1.5-.81-3.26-1.34-4.45-2.47-3.46-3.29-6.35-7.25-10.09-10.13-5.19-4-11.1-7-16.41-10.9-3.18-2.31-5.74-5.47-8.67-8.15a46.64,46.64,0,0,0-4.22-3.09L566,279l-3-4-5-5,4-4C563.79,269.89,566.45,267.92,569,267Z" transform="translate(0.05 -0.03)"/><path class="cls-5" d="M563,275l3,4c3.16,8.08,11.46,10.82,17.07,16.36,2.69,2.65,6,4.65,8.67,7.33.8.81.29,2.92.38,4.43l-1.23.28c2.78,3.05,5.89,5.86,8.21,9.22a10.93,10.93,0,0,1,1.82,7.2c-.16,1-3.85,1.46-5.93,2.16,2.75-9.22-4.58-12.54-10-17Q567.74,295,550.51,281c-1.93-1.58-3.81-3.22-5.72-4.83l6.16-4.05,5-1.06Z" transform="translate(0.05 -0.03)"/><path class="cls-1" d="M569,267c-2.5.89-5.16,2.86-7-1l7-5C568.94,263,568.94,265,569,267Z" transform="translate(0.05 -0.03)"/><path class="cls-3" d="M551,272.08l-6.16,4.05-3-2.89Z" transform="translate(0.05 -0.03)"/><path class="cls-3" d="M563,275l-7-4,2-1Z" transform="translate(0.05 -0.03)"/><path class="cls-11" d="M571.94,257l1,0-4,4Z" transform="translate(0.05 -0.03)"/><path class="cls-5" d="M404,310l-6-3Z" transform="translate(0.05 -0.03)"/><path class="cls-22" d="M83,163.07l-2-.07c2.26-1.37,4.37-3.1,6.79-4.05,7.61-3,15.3-5.79,23-8.48,7.31-2.54,14.83-4.51,22-7.47,1.89-.79,4.29-4.86,3.71-6.39-4-10.61,3.9-16.19,8.87-23.09,1.71-2.38,3.11-5,4.66-7.49,2.38-2.7,5.13-5.16,7-8.16,2.21-3.51,5-5.1,9-4.85L168,96c-4.39,10.36-1.59,20.13,2.52,29.77,1,2.44,2.52,4.7,3.41,7.18,1.75,4.86-.06,8-5,9.43-2.35.7-4.61,1.71-6.92,2.57-2.85,1.08-5.7,3-8.57,3.06-8.79.07-14.32,7.81-22.52,9-.41.05-.69.72-1.1,1-2.91,1.8-5.69,3.94-8.81,5.22-2.88,1.19-5.07,2.42-5.07,5.85l-5,0c-6.29-8.9-12.88-10-18.82-3.08l-8.25-2.89Z" transform="translate(0.05 -0.03)"/><path class="cls-22" d="M143,68c1.56,5.77,1.19,11-4,15Q141,75.53,143,68Z" transform="translate(0.05 -0.03)"/><path class="cls-22" d="M161.94,61c-5.77,6.43-.24,13,.09,19.41.19,3.58,2.54,7,3.92,10.58-1.58-1.51-3.76-2.75-4.63-4.59-2.1-4.52-3.5-9.32-8.79-11.43-.85-.34-1.9-2.6-1.57-3.09C153.91,67.6,155,61.3,161.94,61Z" transform="translate(0.05 -0.03)"/><path class="cls-10" d="M227.94,102c2.83,10.82,5.65,21.65,8.72,33.38-2.26-.62-3.44-.7-4.33-1.24-10.37-6.32-20.72-12.66-31-19.12a33.06,33.06,0,0,1-4.41-4l5-10c3.28-6.93,6.4-13.94,9.92-20.75,2-3.93,4.71-7.54,7.1-11.29Z" transform="translate(0.05 -0.03)"/><path class="cls-5" d="M116,169c0-3.43,2.19-4.66,5.07-5.85,3.12-1.28,5.9-3.42,8.81-5.22.41-.25.69-.92,1.1-1,8.2-1.18,13.73-8.92,22.52-9,2.87,0,5.72-2,8.57-3.06,2.31-.86,4.57-1.87,6.92-2.57,4.92-1.47,6.73-4.57,5-9.43-.89-2.48-2.37-4.74-3.41-7.18-4.11-9.64-6.91-19.41-2.52-29.77L172,97c2.32,10.27,4.5,20.57,7.08,30.77.5,2,2.58,3.5,3.92,5.24,4.48,4.86,10.55,2.71,15.92,3.69A55.72,55.72,0,0,1,206,139l-22,3,0,0c-.54-1.3-1.08-2.6-2.1-5.08-4.08,5.23-6.58,10-7.23,15.37-1.51,12.27-2.54,24.59-3.65,36.9-.36,4,.51,7.5,4.63,9.65.93.48.92,2.77,1.34,4.23l-9-6a34.89,34.89,0,0,0-4-2.87Q140,181.52,116,169Z" transform="translate(0.05 -0.03)"/><path class="cls-4" d="M183,133c-1.34-1.74-3.42-3.29-3.92-5.24-2.58-10.2-4.76-20.5-7.08-30.77L195,111Z" transform="translate(0.05 -0.03)"/><path class="cls-1" d="M180.81,43.92l-.44.09.11-.73c.14.06.34.09.4.2S180.84,43.77,180.81,43.92Z" transform="translate(0.05 -0.03)"/><path class="cls-10" d="M116,169q24,12.57,48,25.17a34.89,34.89,0,0,1,4,2.87c-7.1,3.18-14.11,6.58-21.32,9.5-17.85,7.23-35.79,14.24-53.7,21.31-1.45.57-3,1-5.69,1.83L91.92,216l16-41c1-2,2-4,3-6Z" transform="translate(0.05 -0.03)"/><path class="cls-3" d="M108,175l-16,41-3.78.08q-1.65-21-3.29-42C92.63,172.51,100.4,171.36,108,175Z" transform="translate(0.05 -0.03)"/><path class="cls-7" d="M53.93,234,52,233.93,51.94,231l2,2C53.94,233.36,53.93,233.69,53.93,234Z" transform="translate(0.05 -0.03)"/><path class="cls-1" d="M184,142l22-3,36-1c0,1.66,0,3.33,0,5-.32,1.34-1.33,3-.87,4,4.5,9.4,9.24,18.68,13.91,28-.32,4.08-.29,8.23-1,12.24-1,5.64-2.66,11.17-4,16.75L245,210c-4,6.57-9.13,12.64-9,21-4.13-3-8.47-5.8-12.31-9.16-2.66-2.34-4.43-5.69-7-8.16-.92-.88-3-.5-4.62-.69l-2.12,0c1.81-7.61-2.37-14-4.8-20.49-5.94-15.84-12.7-31.36-19.16-47A37.06,37.06,0,0,0,184,142Z" transform="translate(0.05 -0.03)"/><path class="cls-4" d="M231,282l-6,3-2-12.13c-1.38-8.47-2.7-16.95-4.14-25.4-1.22-7.17-2.58-14.31-3.88-21.46,3.39,5,6.69,10.09,10.19,15,2.44,3.43,5.17,6.66,7.76,10l.06,3Z" transform="translate(0.05 -0.03)"/><path class="cls-19" d="M232.91,251c-2.59-3.32-5.32-6.55-7.76-10-3.5-4.94-6.8-10-10.19-15q-1.49-6.51-3-13c1.58.19,3.7-.19,4.62.69,2.58,2.47,4.35,5.82,7,8.16,3.84,3.36,8.18,6.13,12.31,9.16q-.51,3.5-1,7Q233.93,244.52,232.91,251Z" transform="translate(0.05 -0.03)"/><path class="cls-4" d="M180.94,188c-.91-2-2.58-3.91-2.6-5.87-.07-7.9.25-15.8.71-23.69.12-2.18,1.21-4.3,1.85-6.44Q180.92,170,180.94,188Z" transform="translate(0.05 -0.03)"/><path class="cls-5" d="M595.08,309.6c6.69-2.1,10.34-.63,10.28,3.17,0,.9-2.33,2.7-2.62,2.52A94.48,94.48,0,0,1,595.08,309.6Z" transform="translate(0.05 -0.03)"/><path class="cls-1" d="M572,267h-1l3-1Z" transform="translate(0.05 -0.03)"/><path class="cls-18" d="M234.93,238q.49-3.5,1-7c-.11-8.33,5.05-14.4,9-21,4.93,2.43,10.26,4.28,14.67,7.42,6.13,4.35,11.57,9.67,17.31,14.57l-16.16,19.51c-1,1.15-1.91,2.31-2.86,3.46l-3,2c-2.49-2.86-4.79-5.92-7.52-8.53C243.5,244.75,241.4,238.74,234.93,238Z" transform="translate(0.05 -0.03)"/><path class="cls-23" d="M283.77,271.75c11,.28,11,.26,13.85,11,2.25,8.48,4.77,16.93,6.31,25.55.69,3.83-.38,8.14-1.42,12-.45,1.69-2.82,2.87-4.32,4.28-1.42-1.54-3.17-2.9-4.19-4.67-2.65-4.57-4.94-9.33-7.43-14q-7.45-13.95-15-27.85c-1.52-2.82-.46-4.66,2.32-5.23C277.12,272.18,280.47,272.09,283.77,271.75Z" transform="translate(0.05 -0.03)"/><path class="cls-4" d="M255,257l3-2c1,2.54,1.94,5.12,3.05,7.62,1,2.25,2.47,4.32,3.22,6.63,1.1,3.34,1,6.8-2.57,8.67a7.87,7.87,0,0,1-10-1.58c-2.3-2.37-4.46-4.86-6.68-7.3l1-1.93Z" transform="translate(0.05 -0.03)"/><path class="cls-18" d="M246,267.11,245,269q-7,6.46-14,12.94l2-28Q239.48,260.58,246,267.11Z" transform="translate(0.05 -0.03)"/><path class="cls-3" d="M305,213c0,3.67,0,7.33,0,11C301.26,219.11,301.26,216.59,305,213Z" transform="translate(0.05 -0.03)"/><path class="cls-3" d="M306,227l2,5Z" transform="translate(0.05 -0.03)"/><path class="cls-2" d="M108,175c-7.57-3.67-15.34-2.52-23.12-.95L84,173q0-5-.08-10L92.13,166c5.94-6.88,12.53-5.82,18.82,3.08C110,171,109,173,108,175Z" transform="translate(0.05 -0.03)"/><path class="cls-7" d="M83.88,163.07q0,5,.08,10h-5l4-10Z" transform="translate(0.05 -0.03)"/><path class="cls-3" d="M576,256c3.46-3.59,6.67-7.46,10.44-10.69,4.21-3.62,9-6.59,13.34-10a3.59,3.59,0,0,0,.69-3C598.93,226,601.72,221,605,216l3,4,13,1c-.33,1.67-.67,3.33-1,5-4.23-.08-7,1.85-8,6-4.21,2.78-9.07,4.94-12.5,8.48C592.68,247.48,584,251.2,576,256Z" transform="translate(0.05 -0.03)"/><path class="cls-1" d="M612,232c1-4.15,3.77-6.08,8-6Z" transform="translate(0.05 -0.03)"/><path class="cls-1" d="M608,220l-3-4,4-3Z" transform="translate(0.05 -0.03)"/><path class="cls-1" d="M620,226c.33-1.67.67-3.33,1-5l2.19,1.32Z" transform="translate(0.05 -0.03)"/><path class="cls-7" d="M351.94,320c0-.66,0-1.33,0-2C351.94,318.7,351.94,319.37,351.94,320Z" transform="translate(0.05 -0.03)"/><path class="cls-13" d="M17.66,249.84c-.45-.43-.95-.68-1-1s.24-.84.38-1.27c.43.29,1,.5,1.25.91C18.4,248.67,18,249.23,17.66,249.84Z" transform="translate(0.05 -0.03)"/><path class="cls-9" d="M249.91,204c1.37-5.58,3-11.11,4-16.75.75-4,.72-8.16,1-12.24.48-.87,1-1.75,1.44-2.61,1.7-3,3.49-3.27,5.54-.26,1.76,2.59,3.67,5.08,5.46,7.65,3.76,5.39,3.8,7-.68,11.6-3.89,4-8,7.85-12.26,11.49C253.42,203.8,251.46,203.67,249.91,204Z" transform="translate(0.05 -0.03)"/><path class="cls-1" d="M241.94,143.05c0-1.67,0-3.34,0-5h8c1.64,2.48,3.6,3.1,6,1l4,0,2,5-3,19h-3l-3-4h0l-3-4-2.05-4,3-6.24c-2-.27-4-.57-6-.8a13,13,0,0,0-2,.05Zm14.66,2.71-.8-1.32c-.34.22-.93.42-.94.66a1.5,1.5,0,0,0,.56,1.14C255.56,146.36,256.1,146,256.6,145.76Z" transform="translate(0.05 -0.03)"/><path class="cls-1" d="M242.91,144.05a13,13,0,0,1,2-.05c2,.23,4,.53,6,.8l-3,6.24Z" transform="translate(0.05 -0.03)"/><path class="cls-1" d="M252.94,159l3,4Z" transform="translate(0.05 -0.03)"/><path class="cls-1" d="M250,155l3,4Z" transform="translate(0.05 -0.03)"/><path class="cls-1" d="M255.94,163h0Z" transform="translate(0.05 -0.03)"/><path class="cls-5" d="M256,139c-2.4,2.11-4.36,1.49-6-1Z" transform="translate(0.05 -0.03)"/><path class="cls-9" d="M246,267.11q-6.52-6.54-13-13.09l-.06-3q1-6.51,2-13c6.47.74,8.57,6.75,12.5,10.5,2.73,2.61,5,5.67,7.52,8.53Z" transform="translate(0.05 -0.03)"/><path class="cls-1" d="M256.6,145.76c-.5.22-1,.6-1.18.48a1.5,1.5,0,0,1-.56-1.14c0-.24.6-.44.94-.66Z" transform="translate(0.05 -0.03)"/></svg>